<?xml version="1.0" encoding="utf-8"?>
<!-- Generator: Adobe Illustrator 16.0.0, SVG Export Plug-In . SVG Version: 6.00 Build 0)  -->
<!DOCTYPE svg PUBLIC "-//W3C//DTD SVG 1.1//EN" "http://www.w3.org/Graphics/SVG/1.1/DTD/svg11.dtd">
<svg version="1.1" xmlns="http://www.w3.org/2000/svg" xmlns:xlink="http://www.w3.org/1999/xlink" x="0px" y="0px" width="131.5px"
	 height="131.5px" viewBox="0 0 131.5 131.5" enable-background="new 0 0 131.5 131.5" xml:space="preserve">
<g id="Layer_2">
	<rect fill="#FFFFFF" width="132.75" height="133.25"/>
</g>
<g id="Layer_1">
	<g>
		<path fill="#FFFFFF" d="M62.711,75.916c11.305,0,18.566,0.09,18.477,1.482c0,0.895-7.104,1.264-18.408,1.264
			c-11.305,0-15.359-0.605-15.359-1.498C47.419,76.271,51.406,75.916,62.711,75.916z"/>
		<path fill="#FAFBFB" d="M62.718,75.97c11.164,0,18.431,0.103,18.347,1.435c0,0.86-7.119,1.228-18.282,1.228
			c-11.165,0-15.17-0.565-15.17-1.446C47.611,76.305,51.553,75.97,62.718,75.97z"/>
		<path fill="#F6F7F8" d="M62.724,76.023c11.024,0,18.295,0.117,18.217,1.385c0,0.829-7.135,1.191-18.157,1.191
			c-11.023,0-14.981-0.527-14.981-1.395C47.803,76.339,51.7,76.023,62.724,76.023z"/>
		<path fill="#F3F4F5" d="M62.73,76.078c10.883,0,18.161,0.131,18.086,1.334c0,0.797-7.147,1.155-18.031,1.155
			c-10.884,0-14.791-0.487-14.791-1.341C47.995,76.371,51.847,76.078,62.73,76.078z"/>
		<path fill="#F0F2F3" d="M62.737,76.132c10.742,0,18.025,0.144,17.958,1.284c0,0.766-7.166,1.119-17.907,1.119
			c-10.743,0-14.602-0.449-14.602-1.289C48.186,76.404,51.994,76.132,62.737,76.132z"/>
		<path fill="#EDEFF1" d="M62.744,76.186c10.602,0,17.889,0.158,17.828,1.234c0,0.732-7.18,1.084-17.781,1.084
			c-10.603,0-14.412-0.408-14.412-1.237C48.377,76.438,52.141,76.186,62.744,76.186z"/>
		<path fill="#EAEDEF" d="M62.75,76.24c10.461,0,17.754,0.17,17.698,1.185c0,0.7-7.194,1.047-17.655,1.047
			c-10.462,0-14.223-0.368-14.223-1.185C48.569,76.471,52.288,76.24,62.75,76.24z"/>
		<path fill="#E8EAED" d="M62.755,76.293c10.321,0,17.619,0.185,17.569,1.135c0,0.668-7.21,1.011-17.53,1.011
			c-10.322,0-14.034-0.329-14.034-1.133C48.761,76.504,52.435,76.293,62.755,76.293z"/>
		<path fill="#E5E8EB" d="M62.763,76.347c10.18,0,17.483,0.198,17.438,1.086c0,0.636-7.223,0.976-17.405,0.976
			c-10.18,0-13.843-0.291-13.843-1.08C48.952,76.537,52.582,76.347,62.763,76.347z"/>
		<path fill="#E2E6E9" d="M62.769,76.4c10.04,0,17.349,0.213,17.309,1.036c0,0.604-7.24,0.938-17.279,0.938
			c-10.041,0-13.654-0.25-13.654-1.027S52.729,76.4,62.769,76.4z"/>
		<path fill="#DFE3E7" d="M62.775,76.455c9.9,0,17.214,0.225,17.178,0.984c0,0.572-7.254,0.902-17.152,0.902
			c-9.9,0-13.465-0.211-13.465-0.977C49.336,76.604,52.875,76.455,62.775,76.455z"/>
		<path fill="#DCE1E5" d="M62.781,76.509c9.76,0,17.078,0.239,17.049,0.937c0,0.539-7.27,0.866-17.027,0.866
			c-9.759,0-13.275-0.171-13.275-0.924C49.528,76.637,53.022,76.509,62.781,76.509z"/>
		<path fill="#D9DFE3" d="M62.788,76.563c9.618,0,16.942,0.253,16.92,0.887c0,0.508-7.286,0.83-16.903,0.83
			c-9.619,0-13.086-0.131-13.086-0.871S53.169,76.563,62.788,76.563z"/>
		<path fill="#D7DDE1" d="M62.795,76.617c9.479,0,16.807,0.267,16.79,0.836c0,0.478-7.299,0.795-16.778,0.795
			c-9.478,0-12.896-0.092-12.896-0.817S53.316,76.617,62.795,76.617z"/>
		<path fill="#D4DBE0" d="M62.801,76.67c9.338,0,16.672,0.279,16.66,0.787c0,0.442-7.313,0.759-16.652,0.759
			c-9.337,0-12.707-0.054-12.707-0.767C50.103,76.736,53.463,76.67,62.801,76.67z"/>
		<path fill="#D1D9DE" d="M62.807,76.725c9.196,0,16.537,0.294,16.531,0.736c0,0.41-7.33,0.723-16.526,0.723
			c-9.198,0-12.518-0.014-12.518-0.714C50.295,76.771,53.61,76.725,62.807,76.725z"/>
		<path fill="#CED6DC" d="M62.814,76.778c9.056,0,16.4,0.308,16.4,0.688c0,0.379-7.344,0.687-16.4,0.687
			c-9.057,0-12.328,0.026-12.328-0.661C50.486,76.803,53.757,76.778,62.814,76.778z"/>
	</g>
	<g>
		<path fill="#CED6DC" d="M53.682,77.145c2.278,0,4.125,0.12,4.125,0.268c0,0.146-1.847,0.268-4.125,0.268
			c-2.278,0-3.429-0.13-3.429-0.276C50.254,77.254,51.404,77.145,53.682,77.145z"/>
		<path fill="#C9D2D8" d="M53.626,77.664c-2.206,0-3.342-0.125-3.342-0.267c0-0.144,1.136-0.248,3.342-0.248
			c2.207,0,3.996,0.116,3.996,0.259C57.622,77.55,55.833,77.664,53.626,77.664z"/>
		<path fill="#C5CDD4" d="M53.571,77.651c-2.134,0-3.257-0.12-3.257-0.257s1.123-0.238,3.257-0.238c2.136,0,3.867,0.111,3.867,0.247
			S55.707,77.651,53.571,77.651z"/>
		<path fill="#C0C9D0" d="M53.516,77.639c-2.063,0-3.171-0.115-3.171-0.247c0-0.133,1.109-0.229,3.171-0.229
			c2.064,0,3.738,0.106,3.738,0.237C57.254,77.531,55.58,77.639,53.516,77.639z"/>
		<path fill="#BBC5CC" d="M53.461,77.625c-1.992,0-3.086-0.11-3.086-0.236c0-0.127,1.094-0.223,3.086-0.223
			c1.993,0,3.608,0.104,3.608,0.229S55.453,77.625,53.461,77.625z"/>
		<path fill="#B6C0C9" d="M53.406,77.613c-1.92,0-3-0.106-3-0.229c0-0.12,1.08-0.212,3-0.212c1.921,0,3.479,0.099,3.479,0.22
			C56.884,77.514,55.327,77.613,53.406,77.613z"/>
		<path fill="#B2BCC5" d="M53.35,77.6c-1.849,0-2.915-0.102-2.915-0.218s1.066-0.204,2.915-0.204s3.35,0.095,3.35,0.21
			C56.7,77.504,55.199,77.6,53.35,77.6z"/>
		<path fill="#ADB8C2" d="M53.295,77.586c-1.777,0-2.829-0.098-2.829-0.207c0-0.111,1.052-0.195,2.829-0.195s3.221,0.09,3.221,0.2
			S55.072,77.586,53.295,77.586z"/>
		<path fill="#A9B4BE" d="M53.24,77.572c-1.706,0-2.744-0.092-2.744-0.197c0-0.104,1.038-0.186,2.744-0.186
			c1.706,0,3.092,0.086,3.092,0.189C56.332,77.486,54.946,77.572,53.24,77.572z"/>
		<path fill="#A4B0BB" d="M53.184,77.559c-1.634,0-2.658-0.086-2.658-0.188c0-0.1,1.023-0.177,2.658-0.177
			c1.635,0,2.962,0.082,2.962,0.183C56.147,77.477,54.819,77.559,53.184,77.559z"/>
		<path fill="#A0ACB8" d="M53.129,77.545c-1.563,0-2.572-0.081-2.572-0.176c0-0.097,1.009-0.17,2.572-0.17s2.833,0.077,2.833,0.172
			C55.962,77.467,54.691,77.545,53.129,77.545z"/>
		<path fill="#9CA8B4" d="M53.073,77.533c-1.491,0-2.487-0.078-2.487-0.168s0.996-0.16,2.487-0.16c1.491,0,2.704,0.073,2.704,0.164
			C55.778,77.459,54.565,77.533,53.073,77.533z"/>
		<path fill="#97A5B1" d="M53.019,77.519c-1.421,0-2.402-0.071-2.402-0.155c0-0.086,0.981-0.15,2.402-0.15
			c1.42,0,2.574,0.068,2.574,0.152C55.593,77.451,54.438,77.519,53.019,77.519z"/>
		<path fill="#93A1AE" d="M52.963,77.506c-1.349,0-2.316-0.066-2.316-0.146c0-0.078,0.967-0.143,2.316-0.143
			c1.348,0,2.445,0.064,2.445,0.144C55.409,77.44,54.312,77.506,52.963,77.506z"/>
		<path fill="#8F9EAB" d="M52.908,77.494c-1.277,0-2.23-0.063-2.23-0.139c0-0.074,0.953-0.134,2.23-0.134
			c1.277,0,2.317,0.062,2.317,0.136C55.225,77.431,54.185,77.494,52.908,77.494z"/>
		<path fill="#8B9AA8" d="M52.852,77.479c-1.206,0-2.145-0.058-2.145-0.127c0-0.067,0.939-0.124,2.145-0.124
			c1.205,0,2.188,0.057,2.188,0.125C55.04,77.423,54.057,77.479,52.852,77.479z"/>
		<path fill="#8797A5" d="M52.797,77.466c1.134,0,2.058-0.054,2.058-0.117s-0.924-0.116-2.058-0.116c-1.135,0-2.06,0.053-2.06,0.116
			C50.738,77.412,51.664,77.466,52.797,77.466z"/>
		<path fill="#808F9E" d="M52.75,77.466c1.101,0,1.997-0.052,1.997-0.113S53.85,77.24,52.75,77.24s-1.998,0.051-1.998,0.112
			S51.651,77.466,52.75,77.466z"/>
		<path fill="#7A8797" d="M52.705,77.466c1.066,0,1.935-0.05,1.935-0.108c0-0.061-0.869-0.109-1.935-0.109
			c-1.067,0-1.937,0.05-1.937,0.109C50.768,77.416,51.638,77.466,52.705,77.466z"/>
		<path fill="#748090" d="M52.658,77.466c1.032,0,1.875-0.048,1.875-0.106c0-0.058-0.842-0.105-1.875-0.105
			c-1.033,0-1.875,0.049-1.875,0.105C50.783,77.418,51.625,77.466,52.658,77.466z"/>
		<path fill="#6E7989" d="M52.611,77.466c0.999,0,1.813-0.048,1.813-0.103c0-0.056-0.814-0.103-1.813-0.103
			c-1,0-1.813,0.047-1.813,0.103C50.798,77.418,51.613,77.466,52.611,77.466z"/>
		<path fill="#687383" d="M52.565,77.466c0.965,0,1.751-0.046,1.751-0.099c0-0.055-0.786-0.1-1.751-0.1s-1.752,0.045-1.752,0.1
			C50.813,77.42,51.6,77.466,52.565,77.466z"/>
		<path fill="#626C7D" d="M52.519,77.466c0.931,0,1.69-0.043,1.69-0.097c0-0.051-0.759-0.095-1.69-0.095
			c-0.932,0-1.691,0.044-1.691,0.095C50.828,77.423,51.587,77.466,52.519,77.466z"/>
		<path fill="#5C6677" d="M52.472,77.466c0.897,0,1.629-0.042,1.629-0.093c0-0.049-0.731-0.092-1.629-0.092
			s-1.629,0.043-1.629,0.092C50.843,77.424,51.574,77.466,52.472,77.466z"/>
		<path fill="#566072" d="M52.426,77.466c0.864,0,1.568-0.04,1.568-0.089s-0.704-0.088-1.568-0.088
			c-0.864,0-1.568,0.039-1.568,0.088C50.857,77.426,51.562,77.466,52.426,77.466z"/>
		<path fill="#505B6C" d="M52.379,77.465c0.83,0,1.506-0.038,1.506-0.083c0-0.048-0.677-0.085-1.506-0.085s-1.507,0.037-1.507,0.085
			C50.873,77.428,51.549,77.465,52.379,77.465z"/>
		<ellipse fill="#4A5567" cx="52.333" cy="77.385" rx="1.445" ry="0.08"/>
		<path fill="#455063" d="M52.286,77.465c0.763,0,1.384-0.035,1.384-0.077s-0.622-0.077-1.384-0.077
			c-0.762,0-1.383,0.035-1.383,0.077S51.523,77.465,52.286,77.465z"/>
		<path fill="#3F4B5E" d="M52.24,77.465c0.729,0,1.322-0.033,1.322-0.073s-0.594-0.073-1.322-0.073
			c-0.728,0-1.323,0.033-1.323,0.073S51.511,77.465,52.24,77.465z"/>
		<ellipse fill="#3A4559" cx="52.194" cy="77.396" rx="1.261" ry="0.07"/>
		<path fill="#344055" d="M52.147,77.465c0.661,0,1.2-0.029,1.2-0.066c0-0.035-0.539-0.064-1.2-0.064c-0.662,0-1.2,0.029-1.2,0.064
			C50.947,77.436,51.486,77.465,52.147,77.465z"/>
		<ellipse fill="#2F3B50" cx="52.101" cy="77.403" rx="1.139" ry="0.063"/>
		<ellipse fill="#2A364C" cx="52.055" cy="77.407" rx="1.078" ry="0.06"/>
	</g>
	<g>
		<path fill="#CED6DC" d="M64.391,77.593c1.43,0,2.591,0.118,2.591,0.266s-1.162,0.269-2.591,0.269
			c-1.431,0-2.153-0.131-2.153-0.276C62.237,77.701,62.96,77.593,64.391,77.593z"/>
		<path fill="#C9D2D8" d="M64.397,78.121c-1.397,0-2.12-0.125-2.12-0.268s0.722-0.247,2.12-0.247s2.533,0.115,2.533,0.257
			C66.93,78.004,65.795,78.121,64.397,78.121z"/>
		<path fill="#C5CDD4" d="M64.405,78.119c-1.364,0-2.087-0.121-2.087-0.256c0-0.138,0.723-0.238,2.087-0.238
			c1.364,0,2.47,0.109,2.47,0.246C66.875,78.009,65.77,78.119,64.405,78.119z"/>
		<path fill="#C0C9D0" d="M64.413,78.115c-1.331,0-2.055-0.115-2.055-0.246s0.724-0.229,2.055-0.229s2.411,0.106,2.411,0.237
			C66.823,78.009,65.743,78.115,64.413,78.115z"/>
		<path fill="#BBC5CC" d="M64.42,78.113c-1.297,0-2.021-0.111-2.021-0.236c0-0.127,0.724-0.223,2.021-0.223s2.35,0.104,2.35,0.229
			C66.771,78.01,65.717,78.113,64.42,78.113z"/>
		<path fill="#B6C0C9" d="M64.427,78.109c-1.264,0-1.989-0.105-1.989-0.227s0.725-0.213,1.989-0.213c1.264,0,2.291,0.098,2.291,0.22
			S65.691,78.109,64.427,78.109z"/>
		<path fill="#B2BCC5" d="M64.435,78.105c-1.23,0-1.957-0.102-1.957-0.217c0-0.116,0.727-0.203,1.957-0.203s2.23,0.094,2.23,0.21
			C66.664,78.012,65.665,78.105,64.435,78.105z"/>
		<path fill="#ADB8C2" d="M64.442,78.102c-1.197,0-1.923-0.095-1.923-0.206c0-0.11,0.726-0.194,1.923-0.194
			c1.197,0,2.169,0.09,2.169,0.199C66.611,78.013,65.639,78.102,64.442,78.102z"/>
		<path fill="#A9B4BE" d="M64.449,78.099c-1.164,0-1.891-0.091-1.891-0.196c0-0.104,0.727-0.186,1.891-0.186
			c1.164,0,2.109,0.085,2.109,0.189C66.559,78.013,65.613,78.099,64.449,78.099z"/>
		<path fill="#A4B0BB" d="M64.457,78.096c-1.13,0-1.857-0.087-1.857-0.186c0-0.103,0.728-0.18,1.857-0.18s2.049,0.082,2.049,0.182
			C66.506,78.014,65.586,78.096,64.457,78.096z"/>
		<path fill="#A0ACB8" d="M64.464,78.092c-1.097,0-1.824-0.08-1.824-0.176s0.728-0.17,1.824-0.17c1.097,0,1.989,0.078,1.989,0.174
			C66.453,78.015,65.561,78.092,64.464,78.092z"/>
		<path fill="#9CA8B4" d="M64.472,78.088c-1.063,0-1.792-0.075-1.792-0.165c0-0.091,0.728-0.16,1.792-0.16
			c1.063,0,1.928,0.073,1.928,0.164C66.4,78.017,65.535,78.088,64.472,78.088z"/>
		<path fill="#97A5B1" d="M64.479,78.086c-1.03,0-1.759-0.071-1.759-0.155c0-0.086,0.729-0.151,1.759-0.151s1.869,0.068,1.869,0.153
			C66.348,78.017,65.508,78.086,64.479,78.086z"/>
		<path fill="#93A1AE" d="M64.486,78.082c-0.997,0-1.726-0.065-1.726-0.146c0-0.079,0.729-0.143,1.726-0.143
			c0.997,0,1.809,0.063,1.809,0.144C66.295,78.018,65.482,78.082,64.486,78.082z"/>
		<path fill="#8F9EAB" d="M64.494,78.078c-0.963,0-1.693-0.061-1.693-0.135s0.73-0.134,1.693-0.134s1.748,0.062,1.748,0.135
			C66.242,78.019,65.457,78.078,64.494,78.078z"/>
		<path fill="#8B9AA8" d="M64.5,78.076c-0.929,0-1.66-0.058-1.66-0.125c0-0.069,0.731-0.125,1.66-0.125s1.687,0.057,1.687,0.125
			C66.188,78.02,65.43,78.076,64.5,78.076z"/>
		<path fill="#8797A5" d="M64.508,78.072c0.896,0,1.628-0.052,1.628-0.115c0-0.064-0.731-0.116-1.628-0.116
			s-1.627,0.052-1.627,0.116C62.881,78.021,63.612,78.072,64.508,78.072z"/>
		<path fill="#808F9E" d="M64.503,78.07c0.871,0,1.58-0.049,1.58-0.111c0-0.062-0.71-0.112-1.58-0.112s-1.581,0.051-1.581,0.112
			C62.922,78.021,63.633,78.07,64.503,78.07z"/>
		<path fill="#7A8797" d="M64.499,78.07c0.845,0,1.533-0.049,1.533-0.109c0-0.06-0.689-0.107-1.533-0.107
			c-0.845,0-1.534,0.049-1.534,0.107C62.964,78.021,63.653,78.07,64.499,78.07z"/>
		<path fill="#748090" d="M64.494,78.068c0.819,0,1.487-0.046,1.487-0.104c0-0.059-0.668-0.105-1.487-0.105
			c-0.819,0-1.487,0.049-1.487,0.105C63.007,78.022,63.674,78.068,64.494,78.068z"/>
		<path fill="#6E7989" d="M64.488,78.067c0.793,0,1.44-0.045,1.44-0.102c0-0.056-0.647-0.103-1.44-0.103
			c-0.794,0-1.44,0.047-1.44,0.103C63.048,78.022,63.694,78.067,64.488,78.067z"/>
		<path fill="#687383" d="M64.483,78.066c0.767,0,1.393-0.043,1.393-0.098s-0.626-0.098-1.393-0.098
			c-0.768,0-1.394,0.043-1.394,0.098C63.09,78.023,63.716,78.066,64.483,78.066z"/>
		<path fill="#626C7D" d="M64.478,78.066c0.742,0,1.347-0.042,1.347-0.095c0-0.052-0.605-0.095-1.347-0.095
			c-0.741,0-1.346,0.043-1.346,0.095C63.132,78.024,63.737,78.066,64.478,78.066z"/>
		<ellipse fill="#5C6677" cx="64.473" cy="77.975" rx="1.299" ry="0.091"/>
		<path fill="#566072" d="M64.469,78.063c0.69,0,1.252-0.039,1.252-0.087c0-0.047-0.562-0.088-1.252-0.088
			c-0.691,0-1.253,0.039-1.253,0.088C63.216,78.024,63.778,78.063,64.469,78.063z"/>
		<path fill="#505B6C" d="M64.463,78.063c0.664,0,1.206-0.038,1.206-0.084c0-0.047-0.542-0.084-1.206-0.084
			c-0.665,0-1.206,0.037-1.206,0.084C63.257,78.025,63.798,78.063,64.463,78.063z"/>
		<path fill="#4A5567" d="M64.458,78.063c0.638,0,1.158-0.036,1.158-0.081c0-0.044-0.52-0.08-1.158-0.08
			c-0.639,0-1.16,0.036-1.16,0.08C63.299,78.026,63.82,78.063,64.458,78.063z"/>
		<ellipse fill="#455063" cx="64.453" cy="77.985" rx="1.112" ry="0.077"/>
		<path fill="#3F4B5E" d="M64.448,78.061c0.587,0,1.065-0.033,1.065-0.074c0-0.039-0.478-0.072-1.065-0.072
			c-0.586,0-1.065,0.033-1.065,0.072C63.383,78.027,63.862,78.061,64.448,78.061z"/>
		<ellipse fill="#3A4559" cx="64.443" cy="77.988" rx="1.018" ry="0.07"/>
		<ellipse fill="#344055" cx="64.438" cy="77.992" rx="0.971" ry="0.066"/>
		<ellipse fill="#2F3B50" cx="64.434" cy="77.995" rx="0.924" ry="0.063"/>
		<ellipse fill="#2A364C" cx="64.429" cy="77.997" rx="0.876" ry="0.06"/>
	</g>
	<g>
		<path fill="#CED6DC" d="M76.001,77.209c-1.835,0-3.325,0.119-3.325,0.267c0,0.146,1.489,0.267,3.325,0.267
			c1.837,0,2.763-0.129,2.763-0.275C78.764,77.318,77.837,77.209,76.001,77.209z"/>
		<path fill="#C9D2D8" d="M76.045,77.728c1.779,0,2.694-0.123,2.694-0.267c0-0.143-0.915-0.247-2.694-0.247
			c-1.775,0-3.22,0.114-3.22,0.258C72.826,77.613,74.27,77.728,76.045,77.728z"/>
		<path fill="#C5CDD4" d="M76.091,77.716c1.72,0,2.624-0.12,2.624-0.257c0-0.139-0.904-0.239-2.624-0.239
			c-1.721,0-3.116,0.11-3.116,0.249C72.975,77.604,74.37,77.716,76.091,77.716z"/>
		<path fill="#C0C9D0" d="M76.135,77.703c1.663,0,2.557-0.117,2.557-0.248s-0.894-0.229-2.557-0.229
			c-1.662,0-3.012,0.108-3.012,0.239S74.473,77.703,76.135,77.703z"/>
		<path fill="#BBC5CC" d="M76.18,77.688c1.605,0,2.486-0.11,2.486-0.235c0-0.127-0.88-0.222-2.486-0.222
			c-1.604,0-2.908,0.103-2.908,0.229C73.271,77.584,74.576,77.688,76.18,77.688z"/>
		<path fill="#B6C0C9" d="M76.225,77.675c1.547,0,2.416-0.104,2.416-0.226c0-0.123-0.869-0.214-2.416-0.214
			c-1.548,0-2.805,0.099-2.805,0.22C73.42,77.578,74.677,77.675,76.225,77.675z"/>
		<path fill="#B2BCC5" d="M76.27,77.662c1.489,0,2.349-0.101,2.349-0.217c0-0.115-0.858-0.203-2.349-0.203s-2.701,0.094-2.701,0.211
			C73.568,77.568,74.779,77.662,76.27,77.662z"/>
		<path fill="#ADB8C2" d="M76.314,77.648c1.432,0,2.278-0.095,2.278-0.206c0-0.11-0.847-0.194-2.278-0.194
			c-1.433,0-2.597,0.091-2.597,0.199C73.719,77.558,74.881,77.648,76.314,77.648z"/>
		<path fill="#A9B4BE" d="M76.357,77.635c1.375,0,2.211-0.092,2.211-0.195c0-0.105-0.836-0.188-2.211-0.188
			c-1.373,0-2.49,0.087-2.49,0.192S74.984,77.635,76.357,77.635z"/>
		<path fill="#A4B0BB" d="M76.402,77.621c1.318,0,2.142-0.086,2.142-0.186c0-0.102-0.823-0.177-2.142-0.177
			c-1.316,0-2.387,0.081-2.387,0.182C74.016,77.539,75.087,77.621,76.402,77.621z"/>
		<path fill="#A0ACB8" d="M76.448,77.609c1.258,0,2.071-0.082,2.071-0.177s-0.813-0.168-2.071-0.168
			c-1.261,0-2.283,0.077-2.283,0.172S75.188,77.609,76.448,77.609z"/>
		<path fill="#9CA8B4" d="M76.492,77.596c1.201,0,2.003-0.076,2.003-0.166s-0.802-0.159-2.003-0.159
			c-1.202,0-2.178,0.072-2.178,0.162C74.313,77.522,75.29,77.596,76.492,77.596z"/>
		<path fill="#97A5B1" d="M76.537,77.582c1.145,0,1.936-0.071,1.936-0.156c0-0.084-0.791-0.15-1.936-0.15s-2.075,0.068-2.075,0.154
			C74.462,77.514,75.393,77.582,76.537,77.582z"/>
		<path fill="#93A1AE" d="M76.581,77.568c1.086,0,1.864-0.064,1.864-0.145s-0.778-0.143-1.864-0.143s-1.972,0.063-1.972,0.144
			C74.609,77.504,75.495,77.568,76.581,77.568z"/>
		<path fill="#8F9EAB" d="M76.626,77.555c1.028,0,1.796-0.061,1.796-0.135s-0.768-0.135-1.796-0.135
			c-1.03,0-1.867,0.063-1.867,0.135C74.759,77.496,75.598,77.555,76.626,77.555z"/>
		<path fill="#8B9AA8" d="M76.67,77.543c0.971,0,1.729-0.059,1.729-0.127c0-0.067-0.758-0.123-1.729-0.123s-1.762,0.056-1.762,0.123
			C74.908,77.486,75.7,77.543,76.67,77.543z"/>
		<path fill="#8797A5" d="M76.716,77.529c0.912,0,1.658-0.053,1.658-0.115c0-0.064-0.746-0.116-1.658-0.116
			c-0.915,0-1.659,0.052-1.659,0.116C75.057,77.477,75.801,77.529,76.716,77.529z"/>
		<path fill="#808F9E" d="M76.752,77.529c0.887,0,1.609-0.051,1.609-0.111c0-0.063-0.723-0.112-1.609-0.112s-1.607,0.05-1.607,0.112
			C75.145,77.479,75.866,77.529,76.752,77.529z"/>
		<path fill="#7A8797" d="M76.79,77.529c0.858,0,1.56-0.05,1.56-0.107c0-0.062-0.701-0.109-1.56-0.109s-1.56,0.049-1.56,0.109
			C75.23,77.479,75.932,77.529,76.79,77.529z"/>
		<path fill="#748090" d="M76.827,77.529c0.831,0,1.51-0.048,1.51-0.104c0-0.06-0.679-0.104-1.51-0.104
			c-0.832,0-1.511,0.047-1.511,0.104C75.316,77.481,75.996,77.529,76.827,77.529z"/>
		<path fill="#6E7989" d="M76.865,77.529c0.805,0,1.461-0.046,1.461-0.102c0-0.057-0.657-0.102-1.461-0.102
			c-0.805,0-1.461,0.045-1.461,0.102C75.404,77.483,76.061,77.529,76.865,77.529z"/>
		<path fill="#687383" d="M76.902,77.529c0.777,0,1.412-0.045,1.412-0.099s-0.635-0.099-1.412-0.099
			c-0.778,0-1.412,0.045-1.412,0.099S76.124,77.529,76.902,77.529z"/>
		<path fill="#626C7D" d="M76.939,77.529c0.75,0,1.361-0.043,1.361-0.095s-0.613-0.095-1.361-0.095c-0.75,0-1.362,0.043-1.362,0.095
			S76.188,77.529,76.939,77.529z"/>
		<path fill="#5C6677" d="M76.979,77.529c0.723,0,1.312-0.041,1.312-0.092c0-0.05-0.589-0.091-1.312-0.091
			c-0.725,0-1.313,0.041-1.313,0.091C75.664,77.488,76.253,77.529,76.979,77.529z"/>
		<path fill="#566072" d="M77.016,77.529c0.694,0,1.262-0.039,1.262-0.088c0-0.048-0.567-0.088-1.262-0.088
			c-0.697,0-1.265,0.04-1.265,0.088C75.751,77.49,76.318,77.529,77.016,77.529z"/>
		<path fill="#505B6C" d="M77.052,77.529c0.669,0,1.214-0.037,1.214-0.084s-0.545-0.085-1.214-0.085s-1.214,0.038-1.214,0.085
			S76.383,77.529,77.052,77.529z"/>
		<path fill="#4A5567" d="M77.088,77.529c0.643,0,1.166-0.035,1.166-0.08s-0.523-0.08-1.166-0.08c-0.641,0-1.164,0.035-1.164,0.08
			S76.447,77.529,77.088,77.529z"/>
		<ellipse fill="#455063" cx="77.126" cy="77.452" rx="1.115" ry="0.077"/>
		<path fill="#3F4B5E" d="M77.165,77.529c0.587,0,1.065-0.033,1.065-0.074c0-0.039-0.479-0.071-1.065-0.071
			c-0.588,0-1.065,0.032-1.065,0.071C76.098,77.496,76.576,77.529,77.165,77.529z"/>
		<path fill="#3A4559" d="M77.202,77.529c0.559,0,1.016-0.031,1.016-0.068c0-0.039-0.457-0.071-1.016-0.071
			c-0.562,0-1.017,0.032-1.017,0.071C76.186,77.498,76.641,77.529,77.202,77.529z"/>
		<ellipse fill="#344055" cx="77.239" cy="77.462" rx="0.966" ry="0.066"/>
		<path fill="#2F3B50" d="M77.277,77.529c0.505,0,0.916-0.027,0.916-0.063s-0.411-0.063-0.916-0.063
			c-0.508,0-0.918,0.027-0.918,0.063C76.359,77.502,76.77,77.529,77.277,77.529z"/>
		<ellipse fill="#2A364C" cx="77.313" cy="77.47" rx="0.869" ry="0.06"/>
	</g>
	
		<linearGradient id="SVGID_1_" gradientUnits="userSpaceOnUse" x1="53.4521" y1="926.3975" x2="53.4521" y2="929.403" gradientTransform="matrix(1 0 0 1 11 -910.5)">
		<stop  offset="0" style="stop-color:#425255"/>
		<stop  offset="0.74" style="stop-color:#48585A"/>
		<stop  offset="0.82" style="stop-color:#303F43"/>
		<stop  offset="1" style="stop-color:#0E1819"/>
	</linearGradient>
	<rect x="63.62" y="15.026" fill="url(#SVGID_1_)" width="1.664" height="17.401"/>
	
		<linearGradient id="SVGID_2_" gradientUnits="userSpaceOnUse" x1="60.2759" y1="987.96" x2="60.2759" y2="983.5311" gradientTransform="matrix(1 0 0 1 11 -910.5)">
		<stop  offset="0" style="stop-color:#314044"/>
		<stop  offset="1" style="stop-color:#0E1819"/>
	</linearGradient>
	<polygon fill="url(#SVGID_2_)" points="65.557,72.17 78.26,75.881 78.255,75.884 78.271,75.884 78.271,77.474 75.961,77.474 
		75.961,76.43 64.28,73.019 	"/>
	
		<linearGradient id="SVGID_3_" gradientUnits="userSpaceOnUse" x1="46.6255" y1="987.96" x2="46.6255" y2="983.5311" gradientTransform="matrix(1 0 0 1 11 -910.5)">
		<stop  offset="0" style="stop-color:#314044"/>
		<stop  offset="1" style="stop-color:#0E1819"/>
	</linearGradient>
	<polygon fill="url(#SVGID_3_)" points="63.332,72.17 50.657,75.881 50.663,75.884 50.646,75.884 50.646,77.474 52.951,77.474 
		52.951,76.43 64.605,73.019 	"/>
	
		<linearGradient id="SVGID_4_" gradientUnits="userSpaceOnUse" x1="53.4526" y1="981.1055" x2="53.4526" y2="974.1642" gradientTransform="matrix(1 0 0 1 11 -910.5)">
		<stop  offset="0" style="stop-color:#425255"/>
		<stop  offset="0.74" style="stop-color:#5C696C"/>
		<stop  offset="0.82" style="stop-color:#303F43"/>
		<stop  offset="1" style="stop-color:#0E1819"/>
	</linearGradient>
	<rect x="63.291" y="32.428" fill="url(#SVGID_4_)" width="2.323" height="40.188"/>
	
		<linearGradient id="SVGID_5_" gradientUnits="userSpaceOnUse" x1="53.4521" y1="981.1055" x2="53.4521" y2="974.1642" gradientTransform="matrix(1 0 0 1 11 -910.5)">
		<stop  offset="0" style="stop-color:#425255"/>
		<stop  offset="0.74" style="stop-color:#48585A"/>
		<stop  offset="0.82" style="stop-color:#303F43"/>
		<stop  offset="1" style="stop-color:#0E1819"/>
	</linearGradient>
	<rect x="63.62" y="32.428" fill="url(#SVGID_5_)" width="1.664" height="40.188"/>
	
		<linearGradient id="SVGID_6_" gradientUnits="userSpaceOnUse" x1="53.4526" y1="933.0762" x2="53.4526" y2="931.4443" gradientTransform="matrix(1 0 0 1 11 -910.5)">
		<stop  offset="0" style="stop-color:#BCBFC4"/>
		<stop  offset="0.49" style="stop-color:#A5A6AA"/>
		<stop  offset="1" style="stop-color:#606667"/>
	</linearGradient>
	<rect x="38.753" y="19.648" fill="url(#SVGID_6_)" width="51.399" height="42.911"/>
	
		<radialGradient id="SVGID_7_" cx="53.4521" cy="952.3027" r="29.8198" gradientTransform="matrix(1 0 0 1 11 -910.5)" gradientUnits="userSpaceOnUse">
		<stop  offset="0" style="stop-color:#FFFFFF"/>
		<stop  offset="0.38" style="stop-color:#F7F6F7"/>
		<stop  offset="0.68" style="stop-color:#DDDEE1"/>
		<stop  offset="1" style="stop-color:#BCBFC4"/>
	</radialGradient>
	<rect x="39.236" y="22.238" fill="url(#SVGID_7_)" width="50.433" height="39.93"/>
	
		<linearGradient id="SVGID_8_" gradientUnits="userSpaceOnUse" x1="53.4526" y1="931.5889" x2="53.4526" y2="928.0781" gradientTransform="matrix(1 0 0 1 11 -910.5)">
		<stop  offset="0" style="stop-color:#676A6A"/>
		<stop  offset="0.22" style="stop-color:#2A3233"/>
		<stop  offset="0.29" style="stop-color:#2A3233"/>
		<stop  offset="0.41" style="stop-color:#202828"/>
		<stop  offset="0.45" style="stop-color:#424A4A"/>
		<stop  offset="0.62" style="stop-color:#52595A"/>
		<stop  offset="0.73" style="stop-color:#0B1515"/>
		<stop  offset="0.88" style="stop-color:#5D6262"/>
		<stop  offset="1" style="stop-color:#9A9A9B"/>
	</linearGradient>
	<rect x="38.191" y="17.578" fill="url(#SVGID_8_)" width="52.523" height="3.511"/>
	
		<linearGradient id="SVGID_9_" gradientUnits="userSpaceOnUse" x1="53.4526" y1="974.2266" x2="53.4526" y2="972.4717" gradientTransform="matrix(1 0 0 1 11 -910.5)">
		<stop  offset="0" style="stop-color:#676A6A"/>
		<stop  offset="0.22" style="stop-color:#2A3233"/>
		<stop  offset="0.29" style="stop-color:#2A3233"/>
		<stop  offset="0.41" style="stop-color:#202828"/>
		<stop  offset="0.45" style="stop-color:#424A4A"/>
		<stop  offset="0.62" style="stop-color:#52595A"/>
		<stop  offset="0.73" style="stop-color:#0B1515"/>
		<stop  offset="0.88" style="stop-color:#5D6262"/>
		<stop  offset="1" style="stop-color:#9A9A9B"/>
	</linearGradient>
	<rect x="38.191" y="61.972" fill="url(#SVGID_9_)" width="52.523" height="1.755"/>
	
		<linearGradient id="SVGID_10_" gradientUnits="userSpaceOnUse" x1="53.4399" y1="986.8799" x2="53.4399" y2="980.8099" gradientTransform="matrix(1 0 0 1 11 -910.5)">
		<stop  offset="0" style="stop-color:#344447"/>
		<stop  offset="1" style="stop-color:#0E1819"/>
	</linearGradient>
	<rect x="63.305" y="72.17" fill="url(#SVGID_10_)" width="2.269" height="4.474"/>
	
		<linearGradient id="SVGID_11_" gradientUnits="userSpaceOnUse" x1="52.3052" y1="987.666" x2="52.3052" y2="961.2731" gradientTransform="matrix(1 0 0 1 11 -910.5)">
		<stop  offset="0" style="stop-color:#38484B"/>
		<stop  offset="1" style="stop-color:#FFFFFF"/>
	</linearGradient>
	<path fill="url(#SVGID_11_)" d="M63.362,77.953c0,0.031-0.026,0.057-0.057,0.057c-0.031,0-0.056-0.024-0.056-0.057v-5.78
		c0-0.031,0.025-0.058,0.056-0.058c0.031,0,0.057,0.025,0.057,0.058V77.953z"/>
	
		<linearGradient id="SVGID_12_" gradientUnits="userSpaceOnUse" x1="54.5933" y1="987.666" x2="54.5933" y2="961.2731" gradientTransform="matrix(1 0 0 1 11 -910.5)">
		<stop  offset="0" style="stop-color:#38484B"/>
		<stop  offset="1" style="stop-color:#FFFFFF"/>
	</linearGradient>
	<path fill="url(#SVGID_12_)" d="M65.65,77.953c0,0.031-0.025,0.057-0.056,0.057c-0.031,0-0.057-0.024-0.057-0.057v-5.78
		c0-0.031,0.026-0.058,0.057-0.058c0.031,0,0.056,0.025,0.056,0.058V77.953z"/>
	
		<linearGradient id="SVGID_13_" gradientUnits="userSpaceOnUse" x1="53.4458" y1="988.3516" x2="53.4458" y2="982.1191" gradientTransform="matrix(1 0 0 1 11 -910.5)">
		<stop  offset="0" style="stop-color:#38484B"/>
		<stop  offset="1" style="stop-color:#FFFFFF"/>
	</linearGradient>
	<rect x="63.249" y="76.645" fill="url(#SVGID_13_)" width="2.394" height="1.405"/>
	
		<linearGradient id="SVGID_14_" gradientUnits="userSpaceOnUse" x1="46.0054" y1="987.46" x2="46.0054" y2="962.803" gradientTransform="matrix(1 0 0 1 11 -910.5)">
		<stop  offset="0" style="stop-color:#38484B"/>
		<stop  offset="1" style="stop-color:#FFFFFF"/>
	</linearGradient>
	<path fill="url(#SVGID_14_)" d="M50.764,77.416c0,0.031-0.025,0.058-0.056,0.058c-0.032,0-0.057-0.026-0.057-0.058v-1.539
		c0-0.026,0.019-0.049,0.043-0.055l12.595-3.707c0.03-0.009,0.061,0.01,0.069,0.039c0.009,0.03-0.008,0.063-0.039,0.069
		l-12.558,3.694v1.498H50.764L50.764,77.416z"/>
	
		<linearGradient id="SVGID_15_" gradientUnits="userSpaceOnUse" x1="60.894" y1="987.46" x2="60.894" y2="962.803" gradientTransform="matrix(1 0 0 1 11 -910.5)">
		<stop  offset="0" style="stop-color:#38484B"/>
		<stop  offset="1" style="stop-color:#FFFFFF"/>
	</linearGradient>
	<path fill="url(#SVGID_15_)" d="M78.135,77.416c0,0.031,0.026,0.058,0.059,0.058c0.029,0,0.056-0.026,0.056-0.058v-1.539
		c0-0.026-0.019-0.049-0.044-0.055L65.61,72.115c-0.03-0.009-0.061,0.01-0.069,0.039c-0.009,0.03,0.009,0.063,0.038,0.069
		l12.558,3.694v1.498H78.135L78.135,77.416z"/>
	
		<linearGradient id="SVGID_16_" gradientUnits="userSpaceOnUse" x1="53.418" y1="986.6357" x2="53.4617" y2="987.4707" gradientTransform="matrix(1 0 0 1 11 -910.5)">
		<stop  offset="0" style="stop-color:#38484B"/>
		<stop  offset="1" style="stop-color:#FFFFFF"/>
	</linearGradient>
	<rect x="63.249" y="76.644" fill="url(#SVGID_16_)" width="2.394" height="0.054"/>
	
		<radialGradient id="SVGID_17_" cx="49.2979" cy="935.1367" r="43.7696" gradientTransform="matrix(1 0 0 1 11 -910.5)" gradientUnits="userSpaceOnUse">
		<stop  offset="0" style="stop-color:#CDDC38"/>
		<stop  offset="0.23" style="stop-color:#B5D337"/>
		<stop  offset="0.58" style="stop-color:#8CBE3F"/>
		<stop  offset="1" style="stop-color:#8CBE3F"/>
	</radialGradient>
	<path fill="url(#SVGID_17_)" d="M44.561,24.291h39.783c1.76,0,3.196,1.439,3.196,3.195v26.775v1.438
		c0,1.76-1.438,3.195-3.196,3.195h-0.822H45.385h-0.824c-1.758,0-3.196-1.438-3.196-3.195v-1.438V27.486
		C41.364,25.73,42.802,24.291,44.561,24.291z"/>
	
		<radialGradient id="SVGID_18_" cx="49.6401" cy="935.1367" r="42.4146" gradientTransform="matrix(1 0 0 1 11 -910.5)" gradientUnits="userSpaceOnUse">
		<stop  offset="0" style="stop-color:#DAE252"/>
		<stop  offset="0.23" style="stop-color:#C8DA37"/>
		<stop  offset="0.58" style="stop-color:#9DC33D"/>
		<stop  offset="1" style="stop-color:#9DC33D"/>
	</radialGradient>
	<path fill="url(#SVGID_18_)" d="M44.561,24.291h4.867v34.604h-4.043h-0.824c-0.462,0-0.902-0.099-1.3-0.276V24.568
		C43.658,24.391,44.099,24.291,44.561,24.291L44.561,24.291z M55.394,24.291h6.167v34.604h-6.167V24.291L55.394,24.291z
		 M67.348,24.291h6.168v34.604h-6.168V24.291L67.348,24.291z M79.48,24.291h4.862c0.464,0,0.905,0.1,1.304,0.279v34.047
		c-0.398,0.18-0.84,0.278-1.304,0.278H83.52H79.48V24.291L79.48,24.291z"/>
	
		<linearGradient id="SVGID_19_" gradientUnits="userSpaceOnUse" x1="53.4536" y1="931.5889" x2="53.4536" y2="928.0781" gradientTransform="matrix(1 0 0 1 11 -910.5)">
		<stop  offset="0" style="stop-color:#6F9A41"/>
		<stop  offset="0.29" style="stop-color:#2A3233"/>
		<stop  offset="0.41" style="stop-color:#202828"/>
		<stop  offset="0.45" style="stop-color:#424A4A"/>
		<stop  offset="0.62" style="stop-color:#52595A"/>
		<stop  offset="0.73" style="stop-color:#0B1515"/>
		<stop  offset="0.88" style="stop-color:#5D6262"/>
		<stop  offset="1" style="stop-color:#9A9A9B"/>
	</linearGradient>
	<rect x="41.742" y="17.578" fill="url(#SVGID_19_)" width="45.423" height="3.511"/>
	
		<linearGradient id="SVGID_20_" gradientUnits="userSpaceOnUse" x1="53.5132" y1="926.2061" x2="53.2649" y2="923.8434" gradientTransform="matrix(1 0 0 1 11 -910.5)">
		<stop  offset="0" style="stop-color:#545B5C"/>
		<stop  offset="1" style="stop-color:#FFFFFF"/>
	</linearGradient>
	<rect x="63.62" y="15.026" fill="url(#SVGID_20_)" width="1.664" height="0.201"/>
	<path fill="#2B3618" d="M61.438,38.57v-0.003v-0.004v-4.039h-1.636c-0.042,0-0.078-0.034-0.078-0.077
		c0-0.044,0.035-0.078,0.078-0.078h1.713c0.042,0,0.078,0.034,0.078,0.078v0.004v4.039h1.475c0.042,0,0.078,0.035,0.078,0.077
		c0,0.043-0.036,0.078-0.078,0.078h-1.475v9.513c0,0.043-0.036,0.076-0.078,0.076h-0.004h-1.709c-0.042,0-0.078-0.033-0.078-0.076
		s0.035-0.078,0.078-0.078h1.636V38.57L61.438,38.57z M47.646,29.662c-0.042,0-0.078-0.035-0.078-0.078
		c0-0.041,0.036-0.077,0.078-0.077h1.714c0.042,0,0.078,0.036,0.078,0.077v0.004v1.353h1.475c0.043,0,0.078,0.035,0.078,0.077
		c0,0.044-0.035,0.078-0.078,0.078h-1.475v1.357c0,0.041-0.035,0.076-0.078,0.076h-0.004h-1.71c-0.042,0-0.078-0.035-0.078-0.076
		c0-0.043,0.036-0.078,0.078-0.078h1.636v-1.354v-0.005v-0.003V29.66h-1.636V29.662z M47.646,43.371
		c-0.042,0-0.078-0.033-0.078-0.076s0.036-0.078,0.078-0.078h1.714c0.042,0,0.078,0.035,0.078,0.078V43.3v1.352h1.475
		c0.043,0,0.078,0.035,0.078,0.077c0,0.043-0.035,0.078-0.078,0.078h-1.475v1.355c0,0.043-0.035,0.078-0.078,0.078h-0.004h-1.71
		c-0.042,0-0.078-0.035-0.078-0.078s0.036-0.078,0.078-0.078h1.636v-1.352v-0.005v-0.004v-1.353H47.646L47.646,43.371z
		 M53.72,44.776c-0.043,0-0.077-0.034-0.077-0.077s0.034-0.078,0.077-0.078h1.714c0.042,0,0.078,0.035,0.078,0.078v0.004v3.377
		h1.475c0.042,0,0.078,0.035,0.078,0.076c0,0.043-0.035,0.078-0.078,0.078h-1.475v3.379c0,0.043-0.035,0.078-0.078,0.078H55.43
		h-1.71c-0.043,0-0.077-0.035-0.077-0.078c0-0.041,0.034-0.076,0.077-0.076h1.636V48.16v-0.004v-0.004v-3.376H53.72L53.72,44.776z
		 M53.72,31.065c-0.043,0-0.077-0.036-0.077-0.077c0-0.044,0.034-0.078,0.077-0.078h1.714c0.042,0,0.078,0.034,0.078,0.078v0.004
		v3.377h1.475c0.042,0,0.078,0.034,0.078,0.076c0,0.043-0.035,0.077-0.078,0.077h-1.475v3.38c0,0.042-0.035,0.077-0.078,0.077H55.43
		h-1.71c-0.043,0-0.077-0.035-0.077-0.077s0.034-0.076,0.077-0.076h1.636v-3.377v-0.006V34.44v-3.376L53.72,31.065L53.72,31.065z
		 M47.646,36.517c-0.042,0-0.078-0.035-0.078-0.078c0-0.042,0.036-0.077,0.078-0.077h1.714c0.042,0,0.078,0.035,0.078,0.077v0.005
		v1.352h1.475c0.043,0,0.078,0.035,0.078,0.078s-0.035,0.078-0.078,0.078h-1.475v1.354c0,0.044-0.035,0.078-0.078,0.078h-0.004
		h-1.71c-0.042,0-0.078-0.034-0.078-0.078c0-0.042,0.036-0.077,0.078-0.077h1.636v-1.352v-0.004v-0.004v-1.354L47.646,36.517
		L47.646,36.517z M47.646,50.228c-0.042,0-0.078-0.034-0.078-0.077c0-0.042,0.036-0.078,0.078-0.078h1.714
		c0.042,0,0.078,0.036,0.078,0.078v0.004v1.354h1.475c0.043,0,0.078,0.035,0.078,0.076c0,0.043-0.035,0.078-0.078,0.078h-1.475
		v1.356c0,0.042-0.035,0.077-0.078,0.077h-0.004h-1.71c-0.042,0-0.078-0.035-0.078-0.077s0.036-0.077,0.078-0.077h1.636v-1.353
		v-0.005V51.58v-1.354L47.646,50.228L47.646,50.228z"/>
	<path fill="#2B3618" d="M67.468,41.992v0.006v0.004v6.076h1.636c0.043,0,0.08,0.035,0.08,0.078s-0.037,0.076-0.08,0.076h-1.713
		c-0.043,0-0.078-0.033-0.078-0.076v-0.005v-6.075h-1.475c-0.043,0-0.078-0.035-0.078-0.078s0.035-0.078,0.078-0.078h1.475v-7.475
		c0-0.043,0.035-0.078,0.078-0.078h0.004h1.709c0.043,0,0.078,0.035,0.078,0.078s-0.035,0.077-0.078,0.077h-1.637L67.468,41.992
		L67.468,41.992z M81.258,52.941c0.043,0,0.078,0.035,0.078,0.077s-0.035,0.077-0.078,0.077h-1.714
		c-0.043,0-0.077-0.035-0.077-0.077v-0.005V51.66h-1.476c-0.043,0-0.077-0.033-0.077-0.076s0.034-0.077,0.077-0.077h1.476V50.15
		c0-0.042,0.034-0.078,0.077-0.078h0.005h1.709c0.043,0,0.078,0.036,0.078,0.078c0,0.043-0.035,0.077-0.078,0.077h-1.636v1.353
		v0.004v0.006v1.353L81.258,52.941L81.258,52.941z M81.258,39.229c0.043,0,0.078,0.035,0.078,0.077c0,0.044-0.035,0.078-0.078,0.078
		h-1.714c-0.043,0-0.077-0.034-0.077-0.078v-0.004v-1.353h-1.476c-0.043,0-0.077-0.035-0.077-0.076c0-0.043,0.034-0.078,0.077-0.078
		h1.476v-1.356c0-0.042,0.034-0.077,0.077-0.077h0.005h1.709c0.043,0,0.078,0.035,0.078,0.077c0,0.043-0.035,0.078-0.078,0.078
		h-1.636v1.353v0.004v0.006v1.351L81.258,39.229L81.258,39.229z M75.186,37.826c0.043,0,0.078,0.034,0.078,0.076
		s-0.035,0.078-0.078,0.078h-1.713c-0.043,0-0.08-0.036-0.08-0.078v-0.004v-3.375h-1.475c-0.042,0-0.077-0.035-0.077-0.078
		c0-0.042,0.035-0.076,0.077-0.076h1.475v-3.381c0-0.043,0.037-0.076,0.08-0.076h0.004h1.709c0.043,0,0.078,0.033,0.078,0.076
		s-0.035,0.077-0.078,0.077h-1.637v3.377v0.005v0.004v3.375H75.186L75.186,37.826z M75.186,51.537c0.043,0,0.078,0.035,0.078,0.076
		c0,0.043-0.035,0.078-0.078,0.078h-1.713c-0.043,0-0.08-0.035-0.08-0.078v-0.004v-3.375h-1.475c-0.042,0-0.077-0.035-0.077-0.078
		s0.035-0.076,0.077-0.076h1.475v-3.381c0-0.043,0.037-0.078,0.08-0.078h0.004h1.709c0.043,0,0.078,0.035,0.078,0.078
		s-0.035,0.077-0.078,0.077h-1.637v3.377v0.005v0.004v3.375H75.186L75.186,51.537z M81.258,46.084c0.043,0,0.078,0.035,0.078,0.078
		c0,0.041-0.035,0.076-0.078,0.076h-1.714c-0.043,0-0.077-0.035-0.077-0.076v-0.004v-1.354h-1.476c-0.043,0-0.077-0.035-0.077-0.078
		c0-0.042,0.034-0.077,0.077-0.077h1.476v-1.354c0-0.045,0.034-0.079,0.077-0.079h0.005h1.709c0.043,0,0.078,0.034,0.078,0.079
		c0,0.041-0.035,0.076-0.078,0.076h-1.636v1.353v0.004v0.005v1.352H81.258L81.258,46.084z M81.258,32.373
		c0.043,0,0.078,0.035,0.078,0.078c0,0.041-0.035,0.078-0.078,0.078h-1.714c-0.043,0-0.077-0.037-0.077-0.078v-0.004v-1.354h-1.476
		c-0.043,0-0.077-0.034-0.077-0.078c0-0.042,0.034-0.077,0.077-0.077h1.476v-1.356c0-0.041,0.034-0.076,0.077-0.076h0.005h1.709
		c0.043,0,0.078,0.035,0.078,0.076c0,0.043-0.035,0.078-0.078,0.078h-1.636v1.354v0.003v0.005v1.354h1.636V32.373z"/>
	<rect x="81.258" y="51.965" fill="#E9F0C2" width="2.776" height="2.061"/>
	<rect x="81.258" y="49.142" fill="#E9F0C2" width="2.776" height="2.063"/>
	<rect x="75.216" y="50.554" fill="#E9F0C2" width="2.776" height="2.062"/>
	<rect x="75.216" y="43.699" fill="#E9F0C2" width="2.776" height="2.061"/>
	<rect x="75.216" y="36.843" fill="#E9F0C2" width="2.776" height="2.062"/>
	<rect x="75.216" y="29.986" fill="#E9F0C2" width="2.776" height="2.063"/>
	<rect x="81.258" y="45.108" fill="#E9F0C2" width="2.776" height="2.063"/>
	<rect x="81.258" y="42.287" fill="#E9F0C2" width="2.776" height="2.062"/>
	<rect x="81.258" y="38.254" fill="#E9F0C2" width="2.776" height="2.061"/>
	<rect x="81.258" y="35.431" fill="#E9F0C2" width="2.776" height="2.062"/>
	<rect x="81.258" y="31.397" fill="#E9F0C2" width="2.776" height="2.062"/>
	<rect x="81.258" y="28.576" fill="#E9F0C2" width="2.776" height="2.063"/>
	<rect x="69.107" y="47.125" fill="#E9F0C2" width="2.775" height="2.063"/>
	<rect x="69.107" y="33.414" fill="#E9F0C2" width="2.775" height="2.062"/>
	<rect x="63.065" y="40.966" fill="#E9F0C2" width="2.775" height="2.063"/>
	<rect x="44.871" y="28.576" fill="#E9F0C2" width="2.775" height="2.063"/>
	<rect x="44.871" y="31.397" fill="#E9F0C2" width="2.775" height="2.062"/>
	<rect x="50.913" y="29.986" fill="#E9F0C2" width="2.776" height="2.063"/>
	<rect x="50.913" y="36.843" fill="#E9F0C2" width="2.776" height="2.062"/>
	<rect x="50.913" y="43.697" fill="#E9F0C2" width="2.776" height="2.063"/>
	<rect x="50.913" y="50.554" fill="#E9F0C2" width="2.776" height="2.062"/>
	<rect x="44.871" y="35.431" fill="#E9F0C2" width="2.775" height="2.062"/>
	<rect x="44.871" y="38.254" fill="#E9F0C2" width="2.775" height="2.061"/>
	<rect x="44.871" y="42.287" fill="#E9F0C2" width="2.775" height="2.061"/>
	<rect x="44.871" y="45.108" fill="#E9F0C2" width="2.775" height="2.063"/>
	<rect x="44.871" y="49.142" fill="#E9F0C2" width="2.775" height="2.063"/>
	<rect x="44.871" y="51.964" fill="#E9F0C2" width="2.775" height="2.062"/>
	<rect x="57.023" y="33.414" fill="#E9F0C2" width="2.774" height="2.062"/>
	<rect x="57.023" y="47.125" fill="#E9F0C2" width="2.774" height="2.063"/>
	<rect x="63.065" y="50.555" fill="#E9F0C2" width="2.775" height="2.063"/>
	<rect x="63.064" y="47.125" fill="#E9F0C2" width="2.776" height="2.063"/>
	<rect x="63.064" y="37.537" fill="#E9F0C2" width="2.776" height="2.062"/>
	<g>
		<rect x="13.435" y="82.667" fill="none" width="102" height="15"/>
		<text transform="matrix(1 0 0 1 41.5928 95.5186)" fill="#0D68AA" font-family="'Helvetica87-CondensedHeavy'" font-size="18">Así va</text>
	</g>
	<rect x="2" y="98" fill="none" width="126" height="15"/>
	<text transform="matrix(1 0 0 1 35.4893 110.8516)" fill="#0D68AA" font-family="'Helvetica87-CondensedHeavy'" font-size="18">la porra</text>
</g>
</svg>
