<?xml version="1.0" encoding="utf-8"?>
<!-- Generator: Adobe Illustrator 16.0.0, SVG Export Plug-In . SVG Version: 6.00 Build 0)  -->
<!DOCTYPE svg PUBLIC "-//W3C//DTD SVG 1.1//EN" "http://www.w3.org/Graphics/SVG/1.1/DTD/svg11.dtd">
<svg version="1.1" id="Layer_1" xmlns="http://www.w3.org/2000/svg" xmlns:xlink="http://www.w3.org/1999/xlink" x="0px" y="0px"
	 width="131.5px" height="131.5px" viewBox="0 0 131.5 131.5" enable-background="new 0 0 131.5 131.5" xml:space="preserve">
<g id="Layer_1_1_">
	<rect x="10.364" y="10.364" opacity="0.76" fill="#FFFFFF" enable-background="new    " width="112" height="112"/>
</g>
<g>
	<path fill="#FFFFFF" d="M63.281,74.424c9.539,0,15.667,0.076,15.591,1.251c0,0.755-5.994,1.067-15.533,1.067
		c-9.539,0-12.96-0.512-12.96-1.264C50.377,74.725,53.742,74.424,63.281,74.424z"/>
	<path fill="#FAFBFB" d="M63.287,74.47c9.421,0,15.553,0.087,15.481,1.211c0,0.727-6.007,1.036-15.426,1.036
		c-9.421,0-12.801-0.476-12.801-1.22C50.54,74.753,53.866,74.47,63.287,74.47z"/>
	<path fill="#F6F7F8" d="M63.292,74.516c9.302,0,15.438,0.099,15.373,1.169c0,0.697-6.021,1.004-15.322,1.004
		s-12.641-0.444-12.641-1.178C50.702,74.781,53.99,74.516,63.292,74.516z"/>
	<path fill="#F3F4F5" d="M63.297,74.562c9.184,0,15.325,0.11,15.262,1.125c0,0.674-6.031,0.975-15.215,0.975
		c-9.185,0-12.481-0.411-12.481-1.131C50.864,74.81,54.114,74.562,63.297,74.562z"/>
	<path fill="#F0F2F3" d="M63.303,74.606c9.064,0,15.21,0.122,15.154,1.085c0,0.645-6.047,0.944-15.11,0.944
		c-9.065,0-12.322-0.381-12.322-1.088C51.025,74.836,54.238,74.606,63.303,74.606z"/>
	<path fill="#EDEFF1" d="M63.31,74.651c8.946,0,15.095,0.134,15.044,1.042c0,0.618-6.059,0.915-15.004,0.915
		c-8.947,0-12.162-0.345-12.162-1.044C51.186,74.864,54.362,74.651,63.31,74.651z"/>
	<path fill="#EAEDEF" d="M63.314,74.698c8.827,0,14.981,0.143,14.935,0.999c0,0.591-6.071,0.885-14.898,0.885
		c-8.828,0-12.002-0.312-12.002-1.001C51.348,74.893,54.486,74.698,63.314,74.698z"/>
	<path fill="#E8EAED" d="M63.318,74.742c8.71,0,14.868,0.157,14.826,0.958c0,0.563-6.084,0.854-14.793,0.854
		c-8.71,0-11.842-0.279-11.842-0.957C51.51,74.92,54.61,74.742,63.318,74.742z"/>
	<path fill="#E5E8EB" d="M63.326,74.788c8.59,0,14.752,0.167,14.714,0.917c0,0.536-6.095,0.824-14.687,0.824
		c-8.59,0-11.681-0.247-11.681-0.912C51.671,74.948,54.734,74.788,63.326,74.788z"/>
	<path fill="#E2E6E9" d="M63.331,74.833c8.471,0,14.639,0.18,14.606,0.873c0,0.511-6.109,0.792-14.581,0.792
		c-8.473,0-11.521-0.211-11.521-0.865C51.834,74.977,54.858,74.833,63.331,74.833z"/>
	<path fill="#DFE3E7" d="M63.335,74.879c8.354,0,14.526,0.189,14.496,0.831c0,0.481-6.121,0.761-14.474,0.761
		c-8.354,0-11.362-0.179-11.362-0.823C51.995,75.005,54.981,74.879,63.335,74.879z"/>
	<path fill="#DCE1E5" d="M63.341,74.925c8.235,0,14.411,0.201,14.387,0.791c0,0.454-6.135,0.73-14.368,0.73
		c-8.235,0-11.202-0.145-11.202-0.779S55.105,74.925,63.341,74.925z"/>
	<path fill="#D9DFE3" d="M63.347,74.97c8.116,0,14.296,0.215,14.277,0.749c0,0.429-6.148,0.7-14.263,0.7
		c-8.117,0-11.042-0.111-11.042-0.734C52.318,75.06,55.229,74.97,63.347,74.97z"/>
	<path fill="#D7DDE1" d="M63.353,75.016c7.998,0,14.182,0.226,14.168,0.707c0,0.402-6.159,0.67-14.158,0.67
		c-7.998,0-10.882-0.078-10.882-0.688C52.48,75.091,55.354,75.016,63.353,75.016z"/>
	<path fill="#D4DBE0" d="M63.357,75.061c7.88,0,14.068,0.236,14.059,0.664c0,0.373-6.171,0.642-14.052,0.642
		c-7.879,0-10.723-0.047-10.723-0.648C52.643,75.116,55.478,75.061,63.357,75.061z"/>
	<path fill="#D1D9DE" d="M63.363,75.106c7.759,0,13.954,0.249,13.949,0.622c0,0.346-6.186,0.609-13.945,0.609
		c-7.762,0-10.563-0.012-10.563-0.603C52.805,75.147,55.602,75.106,63.363,75.106z"/>
	<path fill="#CED6DC" d="M63.369,75.151c7.641,0,13.838,0.26,13.838,0.581c0,0.319-6.197,0.579-13.838,0.579
		c-7.643,0-10.403,0.023-10.403-0.558S55.726,75.151,63.369,75.151z"/>
</g>
<g>
	<path fill="#CED6DC" d="M55.663,75.461c1.922,0,3.481,0.103,3.481,0.227c0,0.123-1.559,0.227-3.481,0.227s-2.894-0.11-2.894-0.234
		C52.77,75.554,53.74,75.461,55.663,75.461z"/>
	<path fill="#C9D2D8" d="M55.615,75.899c-1.861,0-2.82-0.105-2.82-0.226s0.958-0.21,2.82-0.21c1.862,0,3.372,0.1,3.372,0.221
		C58.987,75.804,57.478,75.899,55.615,75.899z"/>
	<path fill="#C5CDD4" d="M55.569,75.888c-1.801,0-2.748-0.101-2.748-0.215c0-0.117,0.947-0.202,2.748-0.202
		c1.803,0,3.263,0.094,3.263,0.208C58.832,75.794,57.372,75.888,55.569,75.888z"/>
	<path fill="#C0C9D0" d="M55.522,75.879c-1.741,0-2.675-0.099-2.675-0.209c0-0.112,0.936-0.193,2.675-0.193
		c1.742,0,3.154,0.09,3.154,0.2S57.264,75.879,55.522,75.879z"/>
	<path fill="#BBC5CC" d="M55.476,75.866c-1.681,0-2.604-0.092-2.604-0.199s0.923-0.188,2.604-0.188c1.682,0,3.044,0.087,3.044,0.193
		C58.521,75.777,57.157,75.866,55.476,75.866z"/>
	<path fill="#B6C0C9" d="M55.43,75.856c-1.62,0-2.531-0.09-2.531-0.193c0-0.102,0.911-0.178,2.531-0.178
		c1.621,0,2.936,0.083,2.936,0.185C58.364,75.772,57.051,75.856,55.43,75.856z"/>
	<path fill="#B2BCC5" d="M55.382,75.845c-1.56,0-2.459-0.085-2.459-0.184c0-0.098,0.899-0.172,2.459-0.172
		c1.561,0,2.827,0.08,2.827,0.178S56.943,75.845,55.382,75.845z"/>
	<path fill="#ADB8C2" d="M55.336,75.833c-1.5,0-2.387-0.082-2.387-0.173c0-0.096,0.888-0.166,2.387-0.166s2.718,0.075,2.718,0.169
		C58.054,75.756,56.835,75.833,55.336,75.833z"/>
	<path fill="#A9B4BE" d="M55.29,75.822c-1.44,0-2.316-0.078-2.316-0.167c0-0.087,0.876-0.156,2.316-0.156
		c1.439,0,2.609,0.073,2.609,0.159C57.899,75.749,56.729,75.822,55.29,75.822z"/>
	<path fill="#A4B0BB" d="M55.243,75.811c-1.379,0-2.243-0.072-2.243-0.157s0.863-0.151,2.243-0.151c1.379,0,2.499,0.07,2.499,0.155
		C57.743,75.741,56.622,75.811,55.243,75.811z"/>
	<path fill="#A0ACB8" d="M55.196,75.799c-1.319,0-2.17-0.068-2.17-0.148c0-0.082,0.851-0.144,2.17-0.144s2.391,0.065,2.391,0.146
		C57.586,75.732,56.514,75.799,55.196,75.799z"/>
	<path fill="#9CA8B4" d="M55.149,75.789c-1.258,0-2.099-0.066-2.099-0.142s0.84-0.136,2.099-0.136c1.258,0,2.281,0.062,2.281,0.139
		C57.431,75.727,56.408,75.789,55.149,75.789z"/>
	<path fill="#97A5B1" d="M55.103,75.777c-1.199,0-2.026-0.061-2.026-0.13c0-0.074,0.828-0.128,2.026-0.128
		c1.198,0,2.172,0.058,2.172,0.129S56.301,75.777,55.103,75.777z"/>
	<path fill="#93A1AE" d="M55.056,75.767c-1.138,0-1.954-0.057-1.954-0.124c0-0.065,0.816-0.12,1.954-0.12
		c1.138,0,2.063,0.054,2.063,0.121C57.12,75.71,56.194,75.767,55.056,75.767z"/>
	<path fill="#8F9EAB" d="M55.01,75.756c-1.078,0-1.882-0.052-1.882-0.117c0-0.063,0.804-0.113,1.882-0.113
		c1.077,0,1.955,0.054,1.955,0.116S56.087,75.756,55.01,75.756z"/>
	<path fill="#8B9AA8" d="M54.962,75.743c-1.018,0-1.81-0.049-1.81-0.107c0-0.056,0.792-0.104,1.81-0.104
		c1.017,0,1.846,0.048,1.846,0.105C56.809,75.697,55.979,75.743,54.962,75.743z"/>
	<path fill="#8797A5" d="M54.916,75.732c0.958,0,1.737-0.046,1.737-0.098c0-0.055-0.779-0.1-1.737-0.1s-1.738,0.045-1.738,0.1
		C53.178,75.687,53.96,75.732,54.916,75.732z"/>
	<path fill="#808F9E" d="M54.876,75.732c0.929,0,1.686-0.044,1.686-0.095c0-0.053-0.757-0.096-1.686-0.096
		c-0.928,0-1.686,0.043-1.686,0.094C53.19,75.688,53.949,75.732,54.876,75.732z"/>
	<path fill="#7A8797" d="M54.838,75.732c0.899,0,1.633-0.041,1.633-0.091c0-0.051-0.733-0.093-1.633-0.093
		c-0.9,0-1.635,0.042-1.635,0.093C53.204,75.691,53.938,75.732,54.838,75.732z"/>
	<path fill="#748090" d="M54.799,75.732c0.871,0,1.582-0.041,1.582-0.09s-0.711-0.089-1.582-0.089c-0.872,0-1.583,0.042-1.583,0.089
		C53.216,75.691,53.927,75.732,54.799,75.732z"/>
	<path fill="#6E7989" d="M54.759,75.732c0.843,0,1.53-0.041,1.53-0.087c0-0.048-0.687-0.086-1.53-0.086
		c-0.844,0-1.53,0.038-1.53,0.086C53.229,75.691,53.917,75.732,54.759,75.732z"/>
	<path fill="#687383" d="M54.72,75.732c0.814,0,1.478-0.039,1.478-0.084s-0.664-0.084-1.478-0.084c-0.814,0-1.479,0.039-1.479,0.084
		S53.906,75.732,54.72,75.732z"/>
	<path fill="#626C7D" d="M54.681,75.732c0.786,0,1.426-0.035,1.426-0.082c0-0.043-0.641-0.081-1.426-0.081
		c-0.787,0-1.427,0.038-1.427,0.081C53.254,75.697,53.895,75.732,54.681,75.732z"/>
	<path fill="#5C6677" d="M54.642,75.732c0.757,0,1.375-0.035,1.375-0.079c0-0.041-0.617-0.077-1.375-0.077s-1.375,0.036-1.375,0.077
		C53.267,75.697,53.884,75.732,54.642,75.732z"/>
	<path fill="#566072" d="M54.603,75.732c0.729,0,1.323-0.034,1.323-0.075s-0.594-0.074-1.323-0.074
		c-0.729,0-1.323,0.033-1.323,0.074C53.279,75.698,53.874,75.732,54.603,75.732z"/>
	<path fill="#505B6C" d="M54.563,75.731c0.701,0,1.271-0.032,1.271-0.07c0-0.039-0.571-0.07-1.271-0.07s-1.271,0.031-1.271,0.07
		C53.292,75.7,53.863,75.731,54.563,75.731z"/>
	<ellipse fill="#4A5567" cx="54.524" cy="75.664" rx="1.219" ry="0.068"/>
	<path fill="#455063" d="M54.485,75.731c0.644,0,1.167-0.03,1.167-0.064c0-0.036-0.525-0.066-1.167-0.066
		c-0.643,0-1.167,0.03-1.167,0.066C53.317,75.701,53.841,75.731,54.485,75.731z"/>
	<path fill="#3F4B5E" d="M54.446,75.731c0.615,0,1.116-0.027,1.116-0.062s-0.501-0.063-1.116-0.063s-1.116,0.028-1.116,0.063
		S53.831,75.731,54.446,75.731z"/>
	<ellipse fill="#3A4559" cx="54.407" cy="75.673" rx="1.064" ry="0.059"/>
	<path fill="#344055" d="M54.367,75.731c0.558,0,1.013-0.025,1.013-0.057c0-0.027-0.455-0.053-1.013-0.053
		c-0.559,0-1.013,0.025-1.013,0.053C53.354,75.706,53.81,75.731,54.367,75.731z"/>
	<ellipse fill="#2F3B50" cx="54.329" cy="75.679" rx="0.961" ry="0.053"/>
	<ellipse fill="#2A364C" cx="54.29" cy="75.683" rx="0.909" ry="0.05"/>
</g>
<g>
	<path fill="#CED6DC" d="M64.699,75.839c1.207,0,2.187,0.1,2.187,0.226c0,0.124-0.981,0.228-2.187,0.228
		c-1.208,0-1.817-0.111-1.817-0.234C62.881,75.931,63.492,75.839,64.699,75.839z"/>
	<path fill="#C9D2D8" d="M64.704,76.285c-1.179,0-1.789-0.105-1.789-0.225c0-0.122,0.609-0.211,1.789-0.211s2.138,0.098,2.138,0.218
		C66.842,76.187,65.884,76.285,64.704,76.285z"/>
	<path fill="#C5CDD4" d="M64.711,76.283c-1.151,0-1.761-0.102-1.761-0.216c0-0.117,0.61-0.201,1.761-0.201s2.084,0.094,2.084,0.208
		C66.795,76.191,65.863,76.283,64.711,76.283z"/>
	<path fill="#C0C9D0" d="M64.718,76.28c-1.123,0-1.734-0.098-1.734-0.208s0.611-0.192,1.734-0.192s2.034,0.089,2.034,0.199
		C66.752,76.191,65.84,76.28,64.718,76.28z"/>
	<path fill="#BBC5CC" d="M64.724,76.279c-1.094,0-1.706-0.094-1.706-0.2s0.611-0.188,1.706-0.188s1.982,0.087,1.982,0.193
		C66.708,76.191,65.818,76.279,64.724,76.279z"/>
	<path fill="#B6C0C9" d="M64.729,76.275c-1.066,0-1.678-0.089-1.678-0.192c0-0.103,0.612-0.179,1.678-0.179s1.933,0.082,1.933,0.185
		S65.796,76.275,64.729,76.275z"/>
	<path fill="#B2BCC5" d="M64.736,76.272c-1.038,0-1.651-0.087-1.651-0.184c0-0.098,0.613-0.172,1.651-0.172s1.882,0.079,1.882,0.177
		C66.617,76.192,65.774,76.272,64.736,76.272z"/>
	<path fill="#ADB8C2" d="M64.742,76.269c-1.01,0-1.623-0.08-1.623-0.173c0-0.094,0.613-0.164,1.623-0.164
		c1.01,0,1.83,0.075,1.83,0.167C66.572,76.194,65.752,76.269,64.742,76.269z"/>
	<path fill="#A9B4BE" d="M64.749,76.267c-0.982,0-1.596-0.077-1.596-0.166c0-0.088,0.614-0.157,1.596-0.157
		c0.981,0,1.78,0.073,1.78,0.16C66.528,76.194,65.73,76.267,64.749,76.267z"/>
	<path fill="#A4B0BB" d="M64.755,76.264c-0.954,0-1.567-0.072-1.567-0.156c0-0.088,0.614-0.152,1.567-0.152s1.729,0.069,1.729,0.153
		C66.483,76.194,65.708,76.264,64.755,76.264z"/>
	<path fill="#A0ACB8" d="M64.761,76.261c-0.925,0-1.539-0.068-1.539-0.148c0-0.081,0.614-0.144,1.539-0.144
		c0.926,0,1.679,0.066,1.679,0.147S65.687,76.261,64.761,76.261z"/>
	<path fill="#9CA8B4" d="M64.768,76.257c-0.897,0-1.512-0.063-1.512-0.139c0-0.077,0.614-0.135,1.512-0.135
		c0.897,0,1.627,0.061,1.627,0.138S65.665,76.257,64.768,76.257z"/>
	<path fill="#97A5B1" d="M64.773,76.255c-0.869,0-1.484-0.058-1.484-0.13c0-0.073,0.615-0.127,1.484-0.127s1.577,0.057,1.577,0.129
		C66.351,76.198,65.642,76.255,64.773,76.255z"/>
	<path fill="#93A1AE" d="M64.779,76.252c-0.841,0-1.457-0.054-1.457-0.123c0-0.066,0.616-0.121,1.457-0.121
		c0.841,0,1.526,0.053,1.526,0.122C66.306,76.198,65.62,76.252,64.779,76.252z"/>
	<path fill="#8F9EAB" d="M64.786,76.249c-0.813,0-1.429-0.051-1.429-0.113c0-0.063,0.616-0.113,1.429-0.113s1.476,0.052,1.476,0.113
		C66.262,76.199,65.599,76.249,64.786,76.249z"/>
	<path fill="#8B9AA8" d="M64.791,76.248c-0.784,0-1.401-0.05-1.401-0.106c0-0.059,0.617-0.105,1.401-0.105s1.424,0.049,1.424,0.105
		C66.215,76.199,65.576,76.248,64.791,76.248z"/>
	<path fill="#8797A5" d="M64.798,76.244c0.756,0,1.374-0.045,1.374-0.097c0-0.056-0.617-0.099-1.374-0.099s-1.373,0.043-1.373,0.099
		C63.425,76.201,64.042,76.244,64.798,76.244z"/>
	<path fill="#808F9E" d="M64.793,76.242c0.735,0,1.333-0.041,1.333-0.094s-0.599-0.094-1.333-0.094
		c-0.734,0-1.334,0.043-1.334,0.094C63.459,76.201,64.06,76.242,64.793,76.242z"/>
	<path fill="#7A8797" d="M64.791,76.242c0.712,0,1.293-0.041,1.293-0.093c0-0.051-0.582-0.089-1.293-0.089
		c-0.713,0-1.295,0.04-1.295,0.089C63.495,76.201,64.076,76.242,64.791,76.242z"/>
	<path fill="#748090" d="M64.786,76.241c0.691,0,1.255-0.04,1.255-0.089s-0.564-0.088-1.255-0.088c-0.691,0-1.255,0.041-1.255,0.088
		C63.531,76.201,64.094,76.241,64.786,76.241z"/>
	<path fill="#6E7989" d="M64.781,76.239c0.669,0,1.215-0.038,1.215-0.085c0-0.048-0.546-0.088-1.215-0.088
		c-0.67,0-1.215,0.04-1.215,0.088C63.566,76.201,64.111,76.239,64.781,76.239z"/>
	<path fill="#687383" d="M64.777,76.239c0.647,0,1.175-0.037,1.175-0.084c0-0.045-0.528-0.082-1.175-0.082
		c-0.648,0-1.176,0.037-1.176,0.082C63.601,76.202,64.129,76.239,64.777,76.239z"/>
	<path fill="#626C7D" d="M64.772,76.239c0.626,0,1.137-0.037,1.137-0.081s-0.51-0.079-1.137-0.079c-0.625,0-1.136,0.035-1.136,0.079
		S64.147,76.239,64.772,76.239z"/>
	<ellipse fill="#5C6677" cx="64.769" cy="76.162" rx="1.096" ry="0.077"/>
	<path fill="#566072" d="M64.765,76.235c0.583,0,1.057-0.033,1.057-0.072c0-0.04-0.475-0.074-1.057-0.074
		c-0.583,0-1.057,0.032-1.057,0.074C63.708,76.202,64.182,76.235,64.765,76.235z"/>
	<path fill="#505B6C" d="M64.76,76.235c0.561,0,1.018-0.031,1.018-0.069c0-0.041-0.457-0.072-1.018-0.072
		c-0.561,0-1.018,0.031-1.018,0.072C63.742,76.204,64.199,76.235,64.76,76.235z"/>
	<path fill="#4A5567" d="M64.756,76.235c0.539,0,0.977-0.029,0.977-0.067s-0.438-0.067-0.977-0.067c-0.54,0-0.979,0.029-0.979,0.067
		C63.777,76.204,64.217,76.235,64.756,76.235z"/>
	<ellipse fill="#455063" cx="64.751" cy="76.17" rx="0.938" ry="0.065"/>
	<path fill="#3F4B5E" d="M64.748,76.235c0.495,0,0.898-0.029,0.898-0.064c0-0.032-0.403-0.06-0.898-0.06s-0.899,0.027-0.899,0.06
		C63.849,76.206,64.252,76.235,64.748,76.235z"/>
	<ellipse fill="#3A4559" cx="64.743" cy="76.173" rx="0.859" ry="0.06"/>
	<ellipse fill="#344055" cx="64.739" cy="76.176" rx="0.819" ry="0.056"/>
	<ellipse fill="#2F3B50" cx="64.735" cy="76.179" rx="0.78" ry="0.054"/>
	<ellipse fill="#2A364C" cx="64.731" cy="76.18" rx="0.739" ry="0.05"/>
</g>
<g>
	<path fill="#CED6DC" d="M74.496,75.517c-1.549,0-2.806,0.1-2.806,0.225c0,0.123,1.257,0.226,2.806,0.226
		c1.55,0,2.331-0.109,2.331-0.233C76.827,75.607,76.045,75.517,74.496,75.517z"/>
	<path fill="#C9D2D8" d="M74.533,75.954c1.501,0,2.273-0.104,2.273-0.226s-0.772-0.209-2.273-0.209
		c-1.498,0-2.717,0.097-2.717,0.219C71.817,75.856,73.035,75.954,74.533,75.954z"/>
	<path fill="#C5CDD4" d="M74.572,75.943c1.451,0,2.214-0.102,2.214-0.217c0-0.116-0.763-0.202-2.214-0.202
		c-1.452,0-2.63,0.093-2.63,0.211C71.942,75.849,73.12,75.943,74.572,75.943z"/>
	<path fill="#C0C9D0" d="M74.609,75.933c1.403,0,2.157-0.1,2.157-0.21s-0.754-0.192-2.157-0.192s-2.542,0.092-2.542,0.201
		C72.067,75.842,73.206,75.933,74.609,75.933z"/>
	<path fill="#BBC5CC" d="M74.646,75.919c1.355,0,2.099-0.092,2.099-0.196c0-0.108-0.743-0.189-2.099-0.189
		c-1.353,0-2.454,0.089-2.454,0.195C72.192,75.832,73.294,75.919,74.646,75.919z"/>
	<path fill="#B6C0C9" d="M74.685,75.908c1.306,0,2.039-0.088,2.039-0.19c0-0.104-0.733-0.181-2.039-0.181s-2.366,0.085-2.366,0.186
		C72.318,75.827,73.379,75.908,74.685,75.908z"/>
	<path fill="#B2BCC5" d="M74.723,75.897c1.257,0,1.982-0.086,1.982-0.182c0-0.099-0.725-0.173-1.982-0.173s-2.279,0.079-2.279,0.18
		C72.443,75.818,73.465,75.897,74.723,75.897z"/>
	<path fill="#ADB8C2" d="M74.761,75.886c1.208,0,1.922-0.08,1.922-0.174c0-0.093-0.715-0.164-1.922-0.164
		c-1.21,0-2.192,0.077-2.192,0.169C72.57,75.811,73.551,75.886,74.761,75.886z"/>
	<path fill="#A9B4BE" d="M74.797,75.875c1.16,0,1.865-0.077,1.865-0.165s-0.705-0.158-1.865-0.158c-1.159,0-2.102,0.073-2.102,0.161
		C72.695,75.802,73.638,75.875,74.797,75.875z"/>
	<path fill="#A4B0BB" d="M74.835,75.863c1.112,0,1.807-0.072,1.807-0.157c0-0.086-0.694-0.149-1.807-0.149
		c-1.111,0-2.015,0.068-2.015,0.153C72.82,75.794,73.725,75.863,74.835,75.863z"/>
	<path fill="#A0ACB8" d="M74.873,75.854c1.062,0,1.748-0.068,1.748-0.149s-0.687-0.143-1.748-0.143
		c-1.063,0-1.926,0.065-1.926,0.145C72.947,75.787,73.81,75.854,74.873,75.854z"/>
	<path fill="#9CA8B4" d="M74.91,75.842c1.014,0,1.69-0.064,1.69-0.141c0-0.075-0.677-0.133-1.69-0.133s-1.837,0.061-1.837,0.137
		C73.071,75.779,73.896,75.842,74.91,75.842z"/>
	<path fill="#97A5B1" d="M74.948,75.83c0.966,0,1.634-0.061,1.634-0.132s-0.668-0.126-1.634-0.126s-1.751,0.057-1.751,0.129
		C73.197,75.772,73.982,75.83,74.948,75.83z"/>
	<path fill="#93A1AE" d="M74.985,75.818c0.916,0,1.573-0.054,1.573-0.121c0-0.07-0.657-0.122-1.573-0.122s-1.664,0.054-1.664,0.122
		C73.321,75.765,74.069,75.818,74.985,75.818z"/>
	<path fill="#8F9EAB" d="M75.023,75.807c0.867,0,1.516-0.051,1.516-0.113s-0.648-0.113-1.516-0.113
		c-0.869,0-1.575,0.053-1.575,0.113C73.448,75.758,74.155,75.807,75.023,75.807z"/>
	<path fill="#8B9AA8" d="M75.061,75.798c0.819,0,1.458-0.05,1.458-0.106s-0.639-0.105-1.458-0.105s-1.486,0.049-1.486,0.105
		C73.574,75.749,74.242,75.798,75.061,75.798z"/>
	<path fill="#8797A5" d="M75.1,75.785c0.77,0,1.398-0.044,1.398-0.097c0-0.054-0.629-0.098-1.398-0.098
		c-0.772,0-1.4,0.044-1.4,0.098C73.699,75.741,74.327,75.785,75.1,75.785z"/>
	<path fill="#808F9E" d="M75.13,75.785c0.748,0,1.357-0.042,1.357-0.094c0-0.053-0.609-0.094-1.357-0.094s-1.356,0.041-1.356,0.094
		C73.773,75.743,74.382,75.785,75.13,75.785z"/>
	<path fill="#7A8797" d="M75.162,75.785c0.724,0,1.315-0.042,1.315-0.09c0-0.053-0.592-0.092-1.315-0.092
		c-0.725,0-1.316,0.04-1.316,0.092C73.846,75.743,74.438,75.785,75.162,75.785z"/>
	<path fill="#748090" d="M75.193,75.785c0.701,0,1.273-0.041,1.273-0.088c0-0.05-0.572-0.087-1.273-0.087
		c-0.702,0-1.275,0.039-1.275,0.087C73.918,75.744,74.492,75.785,75.193,75.785z"/>
	<path fill="#6E7989" d="M75.226,75.785c0.679,0,1.232-0.039,1.232-0.086c0-0.048-0.555-0.086-1.232-0.086
		c-0.68,0-1.233,0.038-1.233,0.086C73.992,75.746,74.546,75.785,75.226,75.785z"/>
	<path fill="#687383" d="M75.257,75.785c0.655,0,1.191-0.037,1.191-0.084c0-0.045-0.536-0.083-1.191-0.083
		c-0.657,0-1.191,0.038-1.191,0.083C74.065,75.748,74.6,75.785,75.257,75.785z"/>
	<path fill="#626C7D" d="M75.288,75.785c0.633,0,1.147-0.036,1.147-0.08s-0.517-0.08-1.147-0.08c-0.633,0-1.149,0.036-1.149,0.08
		S74.653,75.785,75.288,75.785z"/>
	<path fill="#5C6677" d="M75.321,75.785c0.61,0,1.107-0.034,1.107-0.077c0-0.042-0.497-0.077-1.107-0.077
		c-0.612,0-1.108,0.035-1.108,0.077C74.212,75.751,74.709,75.785,75.321,75.785z"/>
	<path fill="#566072" d="M75.353,75.785c0.586,0,1.064-0.031,1.064-0.073s-0.479-0.074-1.064-0.074
		c-0.589,0-1.067,0.032-1.067,0.074S74.764,75.785,75.353,75.785z"/>
	<path fill="#505B6C" d="M75.383,75.785c0.564,0,1.024-0.031,1.024-0.069c0-0.041-0.46-0.073-1.024-0.073s-1.024,0.032-1.024,0.073
		C74.358,75.754,74.818,75.785,75.383,75.785z"/>
	<path fill="#4A5567" d="M75.413,75.785c0.542,0,0.984-0.029,0.984-0.067s-0.442-0.067-0.984-0.067c-0.54,0-0.982,0.029-0.982,0.067
		S74.873,75.785,75.413,75.785z"/>
	<ellipse fill="#455063" cx="75.445" cy="75.72" rx="0.941" ry="0.065"/>
	<path fill="#3F4B5E" d="M75.479,75.785c0.495,0,0.898-0.027,0.898-0.063c0-0.031-0.404-0.06-0.898-0.06
		c-0.496,0-0.899,0.028-0.899,0.06C74.577,75.758,74.981,75.785,75.479,75.785z"/>
	<path fill="#3A4559" d="M75.51,75.785c0.471,0,0.856-0.025,0.856-0.057c0-0.033-0.386-0.06-0.856-0.06
		c-0.474,0-0.858,0.026-0.858,0.06C74.651,75.76,75.036,75.785,75.51,75.785z"/>
	<ellipse fill="#344055" cx="75.541" cy="75.729" rx="0.814" ry="0.056"/>
	<path fill="#2F3B50" d="M75.573,75.785c0.426,0,0.772-0.022,0.772-0.053c0-0.031-0.347-0.054-0.772-0.054
		c-0.429,0-0.774,0.022-0.774,0.054C74.799,75.763,75.145,75.785,75.573,75.785z"/>
	<ellipse fill="#2A364C" cx="75.603" cy="75.736" rx="0.733" ry="0.05"/>
</g>
<linearGradient id="SVGID_1_" gradientUnits="userSpaceOnUse" x1="-140.2495" y1="-697.7788" x2="-140.2495" y2="-700.3149" gradientTransform="matrix(1 0 0 -1 205 -674)">
	<stop  offset="0" style="stop-color:#425255"/>
	<stop  offset="0.74" style="stop-color:#48585A"/>
	<stop  offset="0.82" style="stop-color:#303F43"/>
	<stop  offset="1" style="stop-color:#0E1819"/>
</linearGradient>
<rect x="64.049" y="23.043" fill="url(#SVGID_1_)" width="1.404" height="14.683"/>
<linearGradient id="SVGID_2_" gradientUnits="userSpaceOnUse" x1="-134.4912" y1="-749.7275" x2="-134.4912" y2="-745.9905" gradientTransform="matrix(1 0 0 -1 205 -674)">
	<stop  offset="0" style="stop-color:#314044"/>
	<stop  offset="1" style="stop-color:#0E1819"/>
</linearGradient>
<polygon fill="url(#SVGID_2_)" points="65.683,71.264 76.402,74.395 76.397,74.397 76.412,74.397 76.412,75.739 74.462,75.739 
	74.462,74.857 64.605,71.98 "/>
<linearGradient id="SVGID_3_" gradientUnits="userSpaceOnUse" x1="-146.0098" y1="-749.7275" x2="-146.0098" y2="-745.9905" gradientTransform="matrix(1 0 0 -1 205 -674)">
	<stop  offset="0" style="stop-color:#314044"/>
	<stop  offset="1" style="stop-color:#0E1819"/>
</linearGradient>
<polygon fill="url(#SVGID_3_)" points="63.806,71.264 53.11,74.395 53.115,74.397 53.101,74.397 53.101,75.739 55.046,75.739 
	55.046,74.857 64.88,71.98 "/>
<linearGradient id="SVGID_4_" gradientUnits="userSpaceOnUse" x1="-140.2485" y1="-743.9429" x2="-140.2485" y2="-738.0856" gradientTransform="matrix(1 0 0 -1 205 -674)">
	<stop  offset="0" style="stop-color:#425255"/>
	<stop  offset="0.74" style="stop-color:#5C696C"/>
	<stop  offset="0.82" style="stop-color:#303F43"/>
	<stop  offset="1" style="stop-color:#0E1819"/>
</linearGradient>
<rect x="63.771" y="37.728" fill="url(#SVGID_4_)" width="1.96" height="33.912"/>
<linearGradient id="SVGID_5_" gradientUnits="userSpaceOnUse" x1="-140.2495" y1="-743.9429" x2="-140.2495" y2="-738.0856" gradientTransform="matrix(1 0 0 -1 205 -674)">
	<stop  offset="0" style="stop-color:#425255"/>
	<stop  offset="0.74" style="stop-color:#48585A"/>
	<stop  offset="0.82" style="stop-color:#303F43"/>
	<stop  offset="1" style="stop-color:#0E1819"/>
</linearGradient>
<rect x="64.049" y="37.728" fill="url(#SVGID_5_)" width="1.404" height="33.912"/>
<linearGradient id="SVGID_6_" gradientUnits="userSpaceOnUse" x1="-140.249" y1="-703.4141" x2="-140.249" y2="-702.037" gradientTransform="matrix(1 0 0 -1 205 -674)">
	<stop  offset="0" style="stop-color:#BCBFC4"/>
	<stop  offset="0.49" style="stop-color:#A5A6AA"/>
	<stop  offset="1" style="stop-color:#606667"/>
</linearGradient>
<rect x="43.064" y="26.943" fill="url(#SVGID_6_)" width="43.373" height="36.21"/>
<radialGradient id="SVGID_7_" cx="-140.5469" cy="-715.8018" r="29.8194" gradientTransform="matrix(0.8438 0 0 -0.8438 183.3486 -558.3761)" gradientUnits="userSpaceOnUse">
	<stop  offset="0" style="stop-color:#FFFFFF"/>
	<stop  offset="0.38" style="stop-color:#F7F6F7"/>
	<stop  offset="0.68" style="stop-color:#DDDEE1"/>
	<stop  offset="1" style="stop-color:#BCBFC4"/>
</radialGradient>
<rect x="43.473" y="29.128" fill="url(#SVGID_7_)" width="42.557" height="33.695"/>
<linearGradient id="SVGID_8_" gradientUnits="userSpaceOnUse" x1="-140.249" y1="-702.1592" x2="-140.249" y2="-699.1973" gradientTransform="matrix(1 0 0 -1 205 -674)">
	<stop  offset="0" style="stop-color:#676A6A"/>
	<stop  offset="0.22" style="stop-color:#2A3233"/>
	<stop  offset="0.29" style="stop-color:#2A3233"/>
	<stop  offset="0.41" style="stop-color:#202828"/>
	<stop  offset="0.45" style="stop-color:#424A4A"/>
	<stop  offset="0.62" style="stop-color:#52595A"/>
	<stop  offset="0.73" style="stop-color:#0B1515"/>
	<stop  offset="0.88" style="stop-color:#5D6262"/>
	<stop  offset="1" style="stop-color:#9A9A9B"/>
</linearGradient>
<rect x="42.591" y="25.197" fill="url(#SVGID_8_)" width="44.32" height="2.962"/>
<linearGradient id="SVGID_9_" gradientUnits="userSpaceOnUse" x1="-140.249" y1="-738.1387" x2="-140.249" y2="-736.6582" gradientTransform="matrix(1 0 0 -1 205 -674)">
	<stop  offset="0" style="stop-color:#676A6A"/>
	<stop  offset="0.22" style="stop-color:#2A3233"/>
	<stop  offset="0.29" style="stop-color:#2A3233"/>
	<stop  offset="0.41" style="stop-color:#202828"/>
	<stop  offset="0.45" style="stop-color:#424A4A"/>
	<stop  offset="0.62" style="stop-color:#52595A"/>
	<stop  offset="0.73" style="stop-color:#0B1515"/>
	<stop  offset="0.88" style="stop-color:#5D6262"/>
	<stop  offset="1" style="stop-color:#9A9A9B"/>
</linearGradient>
<rect x="42.591" y="62.658" fill="url(#SVGID_9_)" width="44.32" height="1.48"/>
<linearGradient id="SVGID_10_" gradientUnits="userSpaceOnUse" x1="-140.2598" y1="-748.8159" x2="-140.2598" y2="-743.6938" gradientTransform="matrix(1 0 0 -1 205 -674)">
	<stop  offset="0" style="stop-color:#344447"/>
	<stop  offset="1" style="stop-color:#0E1819"/>
</linearGradient>
<rect x="63.783" y="71.264" fill="url(#SVGID_10_)" width="1.915" height="3.775"/>
<linearGradient id="SVGID_11_" gradientUnits="userSpaceOnUse" x1="-141.2173" y1="-749.4795" x2="-141.2173" y2="-727.2055" gradientTransform="matrix(1 0 0 -1 205 -674)">
	<stop  offset="0" style="stop-color:#38484B"/>
	<stop  offset="1" style="stop-color:#FFFFFF"/>
</linearGradient>
<path fill="url(#SVGID_11_)" d="M63.831,76.144c0,0.026-0.021,0.048-0.048,0.048s-0.047-0.021-0.047-0.048v-4.878
	c0-0.025,0.021-0.049,0.047-0.049s0.048,0.022,0.048,0.049V76.144z"/>
<linearGradient id="SVGID_12_" gradientUnits="userSpaceOnUse" x1="-139.2861" y1="-749.4795" x2="-139.2861" y2="-727.2055" gradientTransform="matrix(1 0 0 -1 205 -674)">
	<stop  offset="0" style="stop-color:#38484B"/>
	<stop  offset="1" style="stop-color:#FFFFFF"/>
</linearGradient>
<path fill="url(#SVGID_12_)" d="M65.761,76.144c0,0.026-0.021,0.048-0.047,0.048c-0.026,0-0.047-0.021-0.047-0.048v-4.878
	c0-0.025,0.021-0.049,0.047-0.049c0.026,0,0.047,0.022,0.047,0.049V76.144z"/>
<linearGradient id="SVGID_13_" gradientUnits="userSpaceOnUse" x1="-140.2544" y1="-750.0571" x2="-140.2544" y2="-744.7972" gradientTransform="matrix(1 0 0 -1 205 -674)">
	<stop  offset="0" style="stop-color:#38484B"/>
	<stop  offset="1" style="stop-color:#FFFFFF"/>
</linearGradient>
<rect x="63.735" y="75.039" fill="url(#SVGID_13_)" width="2.021" height="1.186"/>
<linearGradient id="SVGID_14_" gradientUnits="userSpaceOnUse" x1="-146.5327" y1="-749.3052" x2="-146.5327" y2="-728.4971" gradientTransform="matrix(1 0 0 -1 205 -674)">
	<stop  offset="0" style="stop-color:#38484B"/>
	<stop  offset="1" style="stop-color:#FFFFFF"/>
</linearGradient>
<path fill="url(#SVGID_14_)" d="M53.201,75.691c0,0.025-0.021,0.048-0.047,0.048c-0.027,0-0.048-0.022-0.048-0.048v-1.3
	c0-0.021,0.016-0.041,0.036-0.047l10.628-3.128c0.025-0.008,0.051,0.01,0.058,0.033c0.008,0.024-0.007,0.053-0.033,0.058
	l-10.597,3.117v1.265h0.003V75.691z"/>
<linearGradient id="SVGID_15_" gradientUnits="userSpaceOnUse" x1="-133.9692" y1="-749.3052" x2="-133.9692" y2="-728.4971" gradientTransform="matrix(1 0 0 -1 205 -674)">
	<stop  offset="0" style="stop-color:#38484B"/>
	<stop  offset="1" style="stop-color:#FFFFFF"/>
</linearGradient>
<path fill="url(#SVGID_15_)" d="M76.297,75.691c0,0.025,0.021,0.048,0.049,0.048c0.025,0,0.048-0.022,0.048-0.048v-1.3
	c0-0.021-0.017-0.041-0.037-0.047l-10.629-3.128c-0.025-0.008-0.051,0.01-0.058,0.033c-0.007,0.024,0.007,0.053,0.032,0.058
	l10.596,3.117v1.265h-0.001V75.691z"/>
<linearGradient id="SVGID_16_" gradientUnits="userSpaceOnUse" x1="-140.2788" y1="-748.6099" x2="-140.2419" y2="-749.3152" gradientTransform="matrix(1 0 0 -1 205 -674)">
	<stop  offset="0" style="stop-color:#38484B"/>
	<stop  offset="1" style="stop-color:#FFFFFF"/>
</linearGradient>
<rect x="63.735" y="75.039" fill="url(#SVGID_16_)" width="2.021" height="0.046"/>
<radialGradient id="SVGID_17_" cx="-144.7017" cy="-698.6362" r="43.7704" gradientTransform="matrix(0.8438 0 0 -0.8438 183.3486 -558.3761)" gradientUnits="userSpaceOnUse">
	<stop  offset="0" style="stop-color:#CDDC38"/>
	<stop  offset="0.23" style="stop-color:#B5D337"/>
	<stop  offset="0.58" style="stop-color:#8CBE3F"/>
	<stop  offset="1" style="stop-color:#8CBE3F"/>
</radialGradient>
<path fill="url(#SVGID_17_)" d="M47.966,30.862h33.57c1.484,0,2.697,1.214,2.697,2.696v22.593v1.214
	c0,1.484-1.214,2.696-2.697,2.696h-0.694H48.661h-0.695c-1.483,0-2.697-1.213-2.697-2.696v-1.214V33.558
	C45.268,32.076,46.481,30.862,47.966,30.862z"/>
<radialGradient id="SVGID_18_" cx="-144.3594" cy="-698.6367" r="42.4146" gradientTransform="matrix(0.8438 0 0 -0.8438 183.3486 -558.3761)" gradientUnits="userSpaceOnUse">
	<stop  offset="0" style="stop-color:#DAE252"/>
	<stop  offset="0.23" style="stop-color:#C8DA37"/>
	<stop  offset="0.58" style="stop-color:#9DC33D"/>
	<stop  offset="1" style="stop-color:#9DC33D"/>
</radialGradient>
<path fill="url(#SVGID_18_)" d="M47.966,30.862h4.107v29.2h-3.412h-0.695c-0.39,0-0.761-0.083-1.097-0.233V31.095
	C47.204,30.946,47.576,30.862,47.966,30.862L47.966,30.862z M57.107,30.862h5.204v29.2h-5.204V30.862L57.107,30.862z M67.194,30.862
	h5.204v29.2h-5.204V30.862L67.194,30.862z M77.432,30.862h4.103c0.393,0,0.764,0.084,1.101,0.235v28.73
	c-0.336,0.151-0.708,0.234-1.101,0.234h-0.693h-3.409V30.862L77.432,30.862z"/>
<linearGradient id="SVGID_19_" gradientUnits="userSpaceOnUse" x1="-140.2476" y1="-702.1592" x2="-140.2476" y2="-699.1973" gradientTransform="matrix(1 0 0 -1 205 -674)">
	<stop  offset="0" style="stop-color:#6F9A41"/>
	<stop  offset="0.29" style="stop-color:#2A3233"/>
	<stop  offset="0.41" style="stop-color:#202828"/>
	<stop  offset="0.45" style="stop-color:#424A4A"/>
	<stop  offset="0.62" style="stop-color:#52595A"/>
	<stop  offset="0.73" style="stop-color:#0B1515"/>
	<stop  offset="0.88" style="stop-color:#5D6262"/>
	<stop  offset="1" style="stop-color:#9A9A9B"/>
</linearGradient>
<rect x="45.587" y="25.197" fill="url(#SVGID_19_)" width="38.33" height="2.962"/>
<linearGradient id="SVGID_20_" gradientUnits="userSpaceOnUse" x1="-140.1973" y1="-697.6167" x2="-140.4067" y2="-695.6241" gradientTransform="matrix(1 0 0 -1 205 -674)">
	<stop  offset="0" style="stop-color:#545B5C"/>
	<stop  offset="1" style="stop-color:#FFFFFF"/>
</linearGradient>
<rect x="64.049" y="23.043" fill="url(#SVGID_20_)" width="1.404" height="0.169"/>
<path fill="#2B3618" d="M62.208,42.91v-0.002v-0.003v-3.409h-1.381c-0.036,0-0.065-0.028-0.065-0.064
	c0-0.037,0.029-0.066,0.065-0.066h1.446c0.036,0,0.065,0.029,0.065,0.066v0.003v3.408h1.245c0.036,0,0.066,0.029,0.066,0.065
	c0,0.036-0.03,0.066-0.066,0.066h-1.245v8.027c0,0.036-0.03,0.064-0.065,0.064h-0.003h-1.442c-0.036,0-0.065-0.028-0.065-0.064
	s0.029-0.066,0.065-0.066h1.381V42.91L62.208,42.91z M50.569,35.394c-0.036,0-0.066-0.03-0.066-0.066
	c0-0.035,0.03-0.065,0.066-0.065h1.446c0.035,0,0.066,0.031,0.066,0.065v0.003v1.141h1.245c0.036,0,0.066,0.03,0.066,0.065
	c0,0.037-0.03,0.066-0.066,0.066h-1.245v1.145c0,0.035-0.03,0.064-0.066,0.064h-0.003h-1.443c-0.036,0-0.066-0.029-0.066-0.064
	c0-0.036,0.03-0.066,0.066-0.066h1.381v-1.142v-0.004v-0.002v-1.142h-1.381V35.394z M50.569,46.962
	c-0.036,0-0.066-0.028-0.066-0.064c0-0.037,0.03-0.066,0.066-0.066h1.446c0.035,0,0.066,0.029,0.066,0.066v0.004v1.141h1.245
	c0.036,0,0.066,0.029,0.066,0.065c0,0.036-0.03,0.066-0.066,0.066h-1.245v1.143c0,0.037-0.03,0.066-0.066,0.066h-0.003h-1.443
	c-0.036,0-0.066-0.029-0.066-0.066c0-0.036,0.03-0.065,0.066-0.065h1.381V48.11v-0.004v-0.003v-1.142L50.569,46.962L50.569,46.962z
	 M55.695,48.147c-0.037,0-0.065-0.028-0.065-0.064c0-0.036,0.028-0.066,0.065-0.066h1.446c0.035,0,0.066,0.03,0.066,0.066v0.003
	v2.85h1.244c0.036,0,0.066,0.03,0.066,0.064c0,0.036-0.029,0.065-0.066,0.065h-1.244v2.851c0,0.037-0.03,0.066-0.066,0.066h-0.003
	h-1.443c-0.037,0-0.065-0.029-0.065-0.066c0-0.034,0.028-0.064,0.065-0.064h1.38v-2.85V51v-0.004v-2.849H55.695L55.695,48.147z
	 M55.695,36.578c-0.037,0-0.065-0.03-0.065-0.065c0-0.037,0.028-0.065,0.065-0.065h1.446c0.035,0,0.066,0.028,0.066,0.065v0.003
	v2.85h1.244c0.036,0,0.066,0.029,0.066,0.064c0,0.036-0.029,0.065-0.066,0.065h-1.244v2.852c0,0.035-0.03,0.065-0.066,0.065h-0.003
	h-1.443c-0.037,0-0.065-0.03-0.065-0.065s0.028-0.063,0.065-0.063h1.38v-2.85v-0.005v-0.002v-2.85L55.695,36.578L55.695,36.578z
	 M50.569,41.178c-0.036,0-0.066-0.029-0.066-0.066c0-0.035,0.03-0.065,0.066-0.065h1.446c0.035,0,0.066,0.03,0.066,0.065v0.004v1.14
	h1.245c0.036,0,0.066,0.03,0.066,0.066c0,0.037-0.03,0.066-0.066,0.066h-1.245v1.143c0,0.037-0.03,0.065-0.066,0.065h-0.003h-1.443
	c-0.036,0-0.066-0.028-0.066-0.065c0-0.035,0.03-0.065,0.066-0.065h1.381v-1.141v-0.003v-0.003v-1.143L50.569,41.178L50.569,41.178z
	 M50.569,52.748c-0.036,0-0.066-0.029-0.066-0.065c0-0.036,0.03-0.065,0.066-0.065h1.446c0.035,0,0.066,0.03,0.066,0.065v0.003
	v1.142h1.245c0.036,0,0.066,0.03,0.066,0.065c0,0.036-0.03,0.066-0.066,0.066h-1.245v1.144c0,0.036-0.03,0.065-0.066,0.065h-0.003
	h-1.443c-0.036,0-0.066-0.03-0.066-0.065c0-0.035,0.03-0.064,0.066-0.064h1.381v-1.142v-0.004v-0.003v-1.143L50.569,52.748
	L50.569,52.748z"/>
<path fill="#2B3618" d="M67.296,45.798v0.005v0.003v5.127h1.38c0.036,0,0.067,0.029,0.067,0.066c0,0.036-0.031,0.063-0.067,0.063
	H67.23c-0.036,0-0.066-0.027-0.066-0.063v-0.005v-5.126H65.92c-0.036,0-0.066-0.029-0.066-0.066c0-0.036,0.03-0.066,0.066-0.066
	h1.244V39.43c0-0.037,0.03-0.065,0.066-0.065h0.003h1.442c0.036,0,0.065,0.029,0.065,0.065c0,0.036-0.029,0.065-0.065,0.065h-1.381
	L67.296,45.798L67.296,45.798z M78.932,55.037c0.036,0,0.066,0.03,0.066,0.065c0,0.035-0.03,0.064-0.066,0.064h-1.446
	c-0.036,0-0.064-0.029-0.064-0.064v-0.004v-1.142h-1.245c-0.037,0-0.065-0.027-0.065-0.064c0-0.036,0.028-0.065,0.065-0.065h1.245
	v-1.145c0-0.035,0.028-0.065,0.064-0.065h0.005h1.441c0.036,0,0.066,0.03,0.066,0.065c0,0.037-0.03,0.065-0.066,0.065h-1.38v1.142
	v0.003v0.005v1.142L78.932,55.037L78.932,55.037z M78.932,43.467c0.036,0,0.066,0.03,0.066,0.065c0,0.037-0.03,0.065-0.066,0.065
	h-1.446c-0.036,0-0.064-0.028-0.064-0.065v-0.003v-1.142h-1.245c-0.037,0-0.065-0.03-0.065-0.064c0-0.036,0.028-0.065,0.065-0.065
	h1.245v-1.145c0-0.035,0.028-0.065,0.064-0.065h0.005h1.441c0.036,0,0.066,0.03,0.066,0.065c0,0.037-0.03,0.066-0.066,0.066h-1.38
	v1.142v0.003v0.005v1.14L78.932,43.467L78.932,43.467z M73.808,42.283c0.036,0,0.066,0.028,0.066,0.063s-0.03,0.066-0.066,0.066
	h-1.445c-0.036,0-0.067-0.031-0.067-0.066v-0.003v-2.848h-1.244c-0.035,0-0.065-0.03-0.065-0.066c0-0.035,0.03-0.064,0.065-0.064
	h1.244v-2.853c0-0.037,0.031-0.064,0.067-0.064h0.004h1.441c0.036,0,0.066,0.027,0.066,0.064s-0.03,0.065-0.066,0.065h-1.381v2.85
	v0.004v0.003v2.848H73.808L73.808,42.283z M73.808,53.853c0.036,0,0.066,0.03,0.066,0.064c0,0.037-0.03,0.066-0.066,0.066h-1.445
	c-0.036,0-0.067-0.029-0.067-0.066v-0.003v-2.848h-1.244c-0.035,0-0.065-0.029-0.065-0.065c0-0.037,0.03-0.064,0.065-0.064h1.244
	v-2.853c0-0.036,0.031-0.066,0.067-0.066h0.004h1.441c0.036,0,0.066,0.03,0.066,0.066c0,0.037-0.03,0.064-0.066,0.064h-1.381v2.85
	v0.004v0.003v2.848H73.808L73.808,53.853z M78.932,49.251c0.036,0,0.066,0.029,0.066,0.065c0,0.035-0.03,0.064-0.066,0.064h-1.446
	c-0.036,0-0.064-0.029-0.064-0.064v-0.003v-1.142h-1.245c-0.037,0-0.065-0.03-0.065-0.066c0-0.036,0.028-0.065,0.065-0.065h1.245
	v-1.142c0-0.038,0.028-0.067,0.064-0.067h0.005h1.441c0.036,0,0.066,0.029,0.066,0.067c0,0.034-0.03,0.064-0.066,0.064h-1.38v1.142
	v0.003v0.005v1.141L78.932,49.251L78.932,49.251z M78.932,37.682c0.036,0,0.066,0.029,0.066,0.066c0,0.035-0.03,0.065-0.066,0.065
	h-1.446c-0.036,0-0.064-0.031-0.064-0.065v-0.003v-1.144h-1.245c-0.037,0-0.065-0.028-0.065-0.065c0-0.035,0.028-0.064,0.065-0.064
	h1.245v-1.145c0-0.034,0.028-0.064,0.064-0.064h0.005h1.441c0.036,0,0.066,0.03,0.066,0.064c0,0.037-0.03,0.066-0.066,0.066h-1.38
	v1.143v0.002v0.004v1.143h1.38V37.682z"/>
<rect x="78.932" y="54.214" fill="#E9F0C2" width="2.343" height="1.739"/>
<rect x="78.932" y="51.832" fill="#E9F0C2" width="2.343" height="1.741"/>
<rect x="73.833" y="53.023" fill="#E9F0C2" width="2.343" height="1.74"/>
<rect x="73.833" y="47.239" fill="#E9F0C2" width="2.343" height="1.739"/>
<rect x="73.833" y="41.453" fill="#E9F0C2" width="2.343" height="1.741"/>
<rect x="73.833" y="35.667" fill="#E9F0C2" width="2.343" height="1.74"/>
<rect x="78.932" y="48.428" fill="#E9F0C2" width="2.343" height="1.741"/>
<rect x="78.932" y="46.047" fill="#E9F0C2" width="2.343" height="1.74"/>
<rect x="78.932" y="42.644" fill="#E9F0C2" width="2.343" height="1.739"/>
<rect x="78.932" y="40.262" fill="#E9F0C2" width="2.343" height="1.74"/>
<rect x="78.932" y="36.857" fill="#E9F0C2" width="2.343" height="1.74"/>
<rect x="78.932" y="34.478" fill="#E9F0C2" width="2.343" height="1.741"/>
<rect x="68.679" y="50.129" fill="#E9F0C2" width="2.342" height="1.741"/>
<rect x="68.679" y="38.56" fill="#E9F0C2" width="2.342" height="1.739"/>
<rect x="63.58" y="44.932" fill="#E9F0C2" width="2.342" height="1.741"/>
<rect x="48.228" y="34.478" fill="#E9F0C2" width="2.342" height="1.741"/>
<rect x="48.228" y="36.857" fill="#E9F0C2" width="2.342" height="1.74"/>
<rect x="53.326" y="35.667" fill="#E9F0C2" width="2.342" height="1.74"/>
<rect x="53.326" y="41.453" fill="#E9F0C2" width="2.342" height="1.741"/>
<rect x="53.326" y="47.237" fill="#E9F0C2" width="2.342" height="1.74"/>
<rect x="53.326" y="53.023" fill="#E9F0C2" width="2.342" height="1.74"/>
<rect x="48.228" y="40.262" fill="#E9F0C2" width="2.342" height="1.74"/>
<rect x="48.228" y="42.644" fill="#E9F0C2" width="2.342" height="1.739"/>
<rect x="48.228" y="46.047" fill="#E9F0C2" width="2.342" height="1.739"/>
<rect x="48.228" y="48.428" fill="#E9F0C2" width="2.342" height="1.741"/>
<rect x="48.228" y="51.832" fill="#E9F0C2" width="2.342" height="1.741"/>
<rect x="48.228" y="54.213" fill="#E9F0C2" width="2.342" height="1.739"/>
<rect x="58.482" y="38.56" fill="#E9F0C2" width="2.341" height="1.739"/>
<rect x="58.482" y="50.129" fill="#E9F0C2" width="2.341" height="1.741"/>
<rect x="63.58" y="53.024" fill="#E9F0C2" width="2.342" height="1.741"/>
<rect x="63.58" y="50.129" fill="#E9F0C2" width="2.342" height="1.741"/>
<rect x="63.58" y="42.039" fill="#E9F0C2" width="2.342" height="1.74"/>
<g>
	<rect x="21.701" y="80.121" fill="none" width="86.07" height="12.657"/>
	<g enable-background="new    ">
		<path fill="#0D68AA" d="M48.256,80.121h3.189l2.704,10.846h-2.643l-0.396-2.067h-2.597l-0.38,2.067h-2.643L48.256,80.121z
			 M49.805,82.096h-0.03l-0.896,4.829h1.853L49.805,82.096z"/>
		<path fill="#0D68AA" d="M56.747,88.354c0.021,0.426,0.076,0.734,0.167,0.926c0.151,0.253,0.405,0.381,0.759,0.381
			c0.283,0,0.501-0.079,0.653-0.236c0.152-0.156,0.228-0.357,0.228-0.6c0-0.213-0.068-0.401-0.205-0.57
			c-0.137-0.167-0.382-0.312-0.737-0.432c-0.607-0.203-1.078-0.375-1.412-0.518c-0.334-0.142-0.621-0.312-0.858-0.508
			c-0.238-0.198-0.418-0.438-0.54-0.722c-0.121-0.284-0.182-0.639-0.182-1.063c0-0.81,0.271-1.426,0.813-1.846
			c0.542-0.421,1.314-0.631,2.316-0.631c0.557,0,1.028,0.062,1.413,0.183c0.385,0.122,0.693,0.291,0.927,0.509
			c0.233,0.219,0.397,0.463,0.494,0.737c0.096,0.273,0.144,0.566,0.144,0.882v0.272h-2.187v-0.152c0-0.344-0.066-0.582-0.197-0.714
			c-0.132-0.131-0.334-0.198-0.608-0.198c-0.304,0-0.519,0.067-0.646,0.198c-0.126,0.132-0.189,0.319-0.189,0.563
			c0,0.263,0.111,0.46,0.334,0.592s0.577,0.273,1.063,0.426c0.395,0.111,0.722,0.221,0.98,0.327s0.509,0.253,0.752,0.439
			c0.243,0.188,0.438,0.438,0.584,0.752c0.147,0.313,0.22,0.693,0.22,1.141c0,0.839-0.273,1.497-0.82,1.974
			c-0.547,0.475-1.322,0.713-2.324,0.713c-1.083,0-1.876-0.202-2.377-0.607c-0.501-0.405-0.751-1.022-0.751-1.853v-0.364H56.747z"/>
		<path fill="#0D68AA" d="M61.957,82.748h2.46v8.219h-2.46V82.748z M63.02,79.726h2.37l-1.52,2.157h-1.61L63.02,79.726z"/>
		<path fill="#0D68AA" d="M69.277,82.748h2.551l0.958,6.062h0.029l0.973-6.062h2.461l-2.036,8.219h-2.916L69.277,82.748z"/>
		<path fill="#0D68AA" d="M76.962,85.271c0.011-0.548,0.095-1,0.251-1.36c0.156-0.358,0.383-0.641,0.676-0.843
			c0.283-0.191,0.608-0.329,0.973-0.41s0.805-0.122,1.321-0.122c1.021,0,1.764,0.19,2.225,0.569c0.461,0.38,0.691,1.001,0.691,1.861
			v4.222c0,0.446,0.018,0.813,0.053,1.103c0.036,0.288,0.115,0.515,0.236,0.677h-2.369c-0.071-0.234-0.117-0.549-0.137-0.943h-0.031
			c-0.162,0.354-0.421,0.636-0.775,0.844c-0.354,0.207-0.738,0.311-1.153,0.311c-0.709,0-1.251-0.202-1.625-0.607
			c-0.375-0.405-0.562-1.038-0.562-1.897c0-0.476,0.09-0.902,0.273-1.276c0.181-0.375,0.425-0.648,0.729-0.82
			c0.202-0.11,0.438-0.208,0.707-0.289c0.267-0.08,0.584-0.161,0.949-0.243c0.293-0.07,0.475-0.116,0.546-0.136
			c0.375-0.103,0.616-0.208,0.722-0.318c0.106-0.112,0.159-0.319,0.159-0.624c0-0.263-0.063-0.466-0.189-0.607
			c-0.127-0.142-0.322-0.213-0.585-0.213c-0.324,0-0.552,0.092-0.684,0.274c-0.132,0.182-0.203,0.465-0.213,0.851H76.962z
			 M79.295,89.197c0.126,0.186,0.301,0.28,0.523,0.28c0.283,0,0.519-0.092,0.705-0.273c0.188-0.182,0.282-0.466,0.282-0.851
			c0-0.305,0.005-0.628,0.015-0.973c0-0.243,0-0.399,0-0.471c-0.273,0.143-0.576,0.272-0.911,0.395
			c-0.213,0.092-0.354,0.163-0.425,0.213c-0.254,0.193-0.38,0.496-0.38,0.911C79.104,88.754,79.168,89.01,79.295,89.197z"/>
	</g>
</g>
<rect x="12.052" y="93.06" fill="none" width="106.322" height="12.658"/>
<g enable-background="new    ">
	<path fill="#0D68AA" d="M41.055,93.06h2.46v10.846h-2.46V93.06z"/>
	<path fill="#0D68AA" d="M44.898,98.209c0.01-0.548,0.093-1.001,0.25-1.36c0.157-0.359,0.382-0.641,0.676-0.844
		c0.284-0.191,0.608-0.328,0.972-0.409c0.365-0.081,0.805-0.122,1.321-0.122c1.022,0,1.764,0.19,2.226,0.569
		c0.46,0.38,0.691,1.002,0.691,1.861v4.222c0,0.447,0.018,0.813,0.053,1.104c0.035,0.288,0.113,0.514,0.235,0.676h-2.37
		c-0.071-0.234-0.116-0.549-0.137-0.943h-0.03c-0.162,0.355-0.42,0.637-0.775,0.844c-0.354,0.207-0.739,0.312-1.154,0.312
		c-0.709,0-1.251-0.203-1.625-0.608c-0.375-0.404-0.562-1.038-0.562-1.898c0-0.476,0.091-0.9,0.273-1.275
		c0.183-0.375,0.426-0.648,0.729-0.82c0.203-0.111,0.438-0.208,0.707-0.289c0.268-0.081,0.585-0.16,0.949-0.242
		c0.293-0.071,0.476-0.117,0.547-0.137c0.375-0.103,0.615-0.207,0.722-0.319c0.106-0.111,0.159-0.318,0.159-0.623
		c0-0.264-0.063-0.465-0.19-0.607c-0.127-0.142-0.322-0.213-0.584-0.213c-0.324,0-0.552,0.093-0.684,0.274
		c-0.132,0.182-0.203,0.465-0.213,0.851H44.898z M47.229,102.136c0.126,0.187,0.301,0.281,0.524,0.281
		c0.283,0,0.519-0.093,0.706-0.275c0.188-0.181,0.281-0.465,0.281-0.85c0-0.305,0.005-0.628,0.015-0.973c0-0.243,0-0.399,0-0.471
		c-0.273,0.143-0.577,0.273-0.911,0.395c-0.213,0.092-0.355,0.163-0.425,0.213c-0.253,0.192-0.38,0.497-0.38,0.911
		C47.04,101.691,47.103,101.947,47.229,102.136z"/>
	<path fill="#0D68AA" d="M56.487,95.687h2.37v1.003h0.03c0.112-0.335,0.312-0.62,0.601-0.857c0.288-0.237,0.681-0.358,1.177-0.358
		c0.851,0,1.486,0.335,1.906,1.003c0.42,0.669,0.63,1.752,0.63,3.251c0,0.698-0.033,1.307-0.099,1.822
		c-0.066,0.517-0.182,0.968-0.35,1.352c-0.167,0.386-0.41,0.685-0.729,0.897c-0.319,0.212-0.721,0.318-1.208,0.318
		c-0.395,0-0.752-0.084-1.071-0.25c-0.319-0.168-0.575-0.454-0.767-0.859h-0.031v3.569h-2.46V95.687z M59.069,101.693
		c0.111,0.421,0.354,0.631,0.729,0.631c0.405,0,0.663-0.192,0.774-0.576c0.111-0.386,0.167-1.019,0.167-1.899
		c0-0.405-0.008-0.75-0.023-1.033c-0.015-0.282-0.053-0.544-0.114-0.782c-0.061-0.237-0.157-0.425-0.289-0.562
		c-0.132-0.137-0.309-0.205-0.532-0.205c-0.344,0-0.577,0.198-0.699,0.592c-0.122,0.395-0.183,1.022-0.183,1.884
		C58.902,100.623,58.958,101.273,59.069,101.693z"/>
	<path fill="#0D68AA" d="M65.714,103.806c-0.45-0.207-0.792-0.501-1.025-0.882c-0.233-0.38-0.39-0.819-0.471-1.319
		c-0.081-0.503-0.121-1.098-0.121-1.786c0-0.668,0.048-1.26,0.145-1.777c0.096-0.515,0.266-0.967,0.508-1.352
		c0.243-0.385,0.587-0.685,1.033-0.896c0.445-0.213,1.012-0.319,1.702-0.319c0.729,0,1.32,0.104,1.776,0.312
		c0.456,0.209,0.798,0.501,1.025,0.881s0.382,0.82,0.463,1.323c0.081,0.501,0.122,1.095,0.122,1.783
		c0,0.669-0.048,1.262-0.146,1.777c-0.095,0.517-0.265,0.968-0.507,1.352c-0.244,0.386-0.589,0.685-1.034,0.897
		c-0.445,0.212-1.013,0.318-1.7,0.318C66.755,104.117,66.165,104.013,65.714,103.806z M68.235,97.653
		c-0.116-0.38-0.362-0.569-0.736-0.569c-0.354,0-0.6,0.199-0.736,0.593c-0.138,0.395-0.206,1.099-0.206,2.111
		s0.068,1.719,0.206,2.118c0.137,0.4,0.382,0.6,0.736,0.6c0.374,0,0.62-0.188,0.736-0.569c0.116-0.38,0.175-1.09,0.175-2.133
		C68.41,98.75,68.352,98.033,68.235,97.653z"/>
	<path fill="#0D68AA" d="M71.965,95.687h2.369v1.154h0.03c0.182-0.404,0.436-0.733,0.76-0.987c0.324-0.252,0.729-0.38,1.216-0.38
		c0.161,0,0.293,0.011,0.394,0.03v2.311c-0.213-0.042-0.44-0.063-0.684-0.063c-0.517,0-0.916,0.12-1.199,0.357
		c-0.284,0.238-0.426,0.615-0.426,1.131v4.665h-2.46V95.687z"/>
	<path fill="#0D68AA" d="M77.585,95.687h2.369v1.154h0.03c0.182-0.404,0.436-0.733,0.76-0.987c0.323-0.252,0.729-0.38,1.215-0.38
		c0.162,0,0.294,0.011,0.395,0.03v2.311c-0.213-0.042-0.44-0.063-0.684-0.063c-0.517,0-0.916,0.12-1.199,0.357
		c-0.284,0.238-0.426,0.615-0.426,1.131v4.665h-2.46V95.687z"/>
	<path fill="#0D68AA" d="M82.977,98.209c0.01-0.548,0.094-1.001,0.25-1.36c0.157-0.359,0.383-0.641,0.676-0.844
		c0.283-0.191,0.608-0.328,0.973-0.409s0.805-0.122,1.321-0.122c1.022,0,1.764,0.19,2.226,0.569c0.46,0.38,0.69,1.002,0.69,1.861
		v4.222c0,0.447,0.018,0.813,0.054,1.104c0.035,0.288,0.114,0.514,0.235,0.676h-2.369c-0.071-0.234-0.117-0.549-0.137-0.943h-0.031
		c-0.161,0.355-0.42,0.637-0.774,0.844s-0.738,0.312-1.154,0.312c-0.708,0-1.251-0.203-1.625-0.608
		c-0.375-0.404-0.562-1.038-0.562-1.898c0-0.476,0.091-0.9,0.273-1.275c0.182-0.375,0.425-0.648,0.729-0.82
		c0.202-0.111,0.438-0.208,0.707-0.289c0.267-0.081,0.584-0.16,0.949-0.242c0.293-0.071,0.475-0.117,0.546-0.137
		c0.375-0.103,0.616-0.207,0.722-0.319c0.107-0.111,0.16-0.318,0.16-0.623c0-0.264-0.063-0.465-0.19-0.607
		c-0.127-0.142-0.321-0.213-0.585-0.213c-0.324,0-0.552,0.093-0.684,0.274s-0.203,0.465-0.213,0.851H82.977z M85.309,102.136
		c0.126,0.187,0.301,0.281,0.523,0.281c0.283,0,0.519-0.093,0.706-0.275c0.188-0.181,0.281-0.465,0.281-0.85
		c0-0.305,0.005-0.628,0.016-0.973c0-0.243,0-0.399,0-0.471c-0.274,0.143-0.577,0.273-0.912,0.395
		c-0.212,0.092-0.354,0.163-0.425,0.213c-0.254,0.192-0.38,0.497-0.38,0.911C85.118,101.691,85.182,101.947,85.309,102.136z"/>
</g>
</svg>
