<?xml version="1.0" encoding="utf-8"?>
<!-- Generator: Adobe Illustrator 16.0.0, SVG Export Plug-In . SVG Version: 6.00 Build 0)  -->
<!DOCTYPE svg PUBLIC "-//W3C//DTD SVG 1.1//EN" "http://www.w3.org/Graphics/SVG/1.1/DTD/svg11.dtd">
<svg version="1.1" id="Layer_1" xmlns="http://www.w3.org/2000/svg" xmlns:xlink="http://www.w3.org/1999/xlink" x="0px" y="0px"
	 width="131.5px" height="131.5px" viewBox="0 0 131.5 131.5" enable-background="new 0 0 131.5 131.5" xml:space="preserve">
<g id="Layer_1_2_">
	<rect x="9.25" y="10.25" opacity="0.76" fill="#FFFFFF" enable-background="new    " width="112" height="112"/>
</g>
<g>
	<g>
		<g>
			
				<linearGradient id="SVGID_1_" gradientUnits="userSpaceOnUse" x1="-352.1011" y1="1638.5234" x2="-352.1011" y2="1619.2803" gradientTransform="matrix(1 0 0 1 399 -1570)">
				<stop  offset="0" style="stop-color:#FFFFFF"/>
				<stop  offset="1" style="stop-color:#817E7E"/>
			</linearGradient>
			<path fill="url(#SVGID_1_)" d="M51.635,56.138l0.552-6.402l-0.96-0.456c0,0.661-3.644,2.836-4.314,2.836
				c-0.795,0-4.312-2.217-4.312-2.836l-0.99,0.456l0.583,6.402l1.532,4.526l2.545,7.859h1.286l2.543-7.859L51.635,56.138z"/>
			
				<linearGradient id="SVGID_2_" gradientUnits="userSpaceOnUse" x1="-352.0557" y1="1623.3564" x2="-352.1678" y2="1639.5138" gradientTransform="matrix(1 0 0 1 399 -1570)">
				<stop  offset="0" style="stop-color:#A11D21"/>
				<stop  offset="0.0296" style="stop-color:#A61E22"/>
				<stop  offset="0.1735" style="stop-color:#BA1F24"/>
				<stop  offset="0.3433" style="stop-color:#C91F26"/>
				<stop  offset="0.5616" style="stop-color:#D21F26"/>
				<stop  offset="1" style="stop-color:#D51F26"/>
			</linearGradient>
			<path fill="url(#SVGID_2_)" d="M58.876,52.072c-0.492-0.047-4.488-1.539-5.291-1.651l-1.398-0.686l-5.277,4.727l-5.299-4.727
				l-1.447,0.695c-0.772,0.105-4.735,1.596-5.212,1.639c-3.376,0.317-3.721,1.874-3.721,5.677c0,1.466,1.805,4.055,2.03,5.505
				c0.581,3.729,1.959,5.271,5.351,5.271h16.605c3.393,0,4.689-1.58,5.353-5.271c0.259-1.443,2.029-4.038,2.029-5.505
				C62.597,54.101,62.253,52.387,58.876,52.072z"/>
		</g>
		<g>
			
				<radialGradient id="SVGID_3_" cx="-311.5645" cy="1664.8613" r="9.84" gradientTransform="matrix(0.8453 0 0 0.8453 310.2772 -1367.8717)" gradientUnits="userSpaceOnUse">
				<stop  offset="0" style="stop-color:#F7E4CF"/>
				<stop  offset="0.0993" style="stop-color:#F7E2CA"/>
				<stop  offset="0.2281" style="stop-color:#F5DABC"/>
				<stop  offset="0.3732" style="stop-color:#F1CDA4"/>
				<stop  offset="0.529" style="stop-color:#EDBC86"/>
				<stop  offset="0.6373" style="stop-color:#E9AF6F"/>
				<stop  offset="0.7005" style="stop-color:#DDA56A"/>
				<stop  offset="0.789" style="stop-color:#C48F5F"/>
				<stop  offset="0.8924" style="stop-color:#9F704E"/>
				<stop  offset="1" style="stop-color:#754E3A"/>
			</radialGradient>
			<path fill="url(#SVGID_3_)" d="M46.913,30.099c-5.207,0-7.156,2.645-7.156,7.356c0,1.725,0.485,2.207,0.669,3.594
				c0.089,0.683,0.307,2.11,0.644,2.59c0.975,1.391,1.537,2.617,2.237,3.519c0.778,1.006,1.728,1.614,3.607,1.614
				c1.875,0,2.827-0.565,3.611-1.561c0.697-0.883,1.265-2.105,2.231-3.574c0.453-0.686,0.687-2.419,0.79-3.428
				c0.122-1.178,0.522-1.368,0.522-2.757C54.068,32.744,52.118,30.099,46.913,30.099z"/>
			
				<linearGradient id="SVGID_4_" gradientUnits="userSpaceOnUse" x1="-352.0864" y1="1622.1143" x2="-352.0864" y2="1617.1621" gradientTransform="matrix(1 0 0 1 399 -1570)">
				<stop  offset="0" style="stop-color:#F0C89B"/>
				<stop  offset="0.0719" style="stop-color:#EFC596"/>
				<stop  offset="0.1711" style="stop-color:#EDBD87"/>
				<stop  offset="0.2863" style="stop-color:#EAB071"/>
				<stop  offset="0.4126" style="stop-color:#E59F51"/>
				<stop  offset="0.4559" style="stop-color:#E39844"/>
				<stop  offset="1" style="stop-color:#6E4631"/>
			</linearGradient>
			<path fill="url(#SVGID_4_)" d="M50.446,48.6c0-0.751,0.035-1.147,0.078-1.384c-0.785,0.994-1.736,1.558-3.611,1.558
				c-1.879,0-2.829-0.607-3.606-1.612c0.028,0.288,0.051,0.722,0.051,1.38c0,0.511-0.031,0.737-0.757,0.737
				c0,0.62,3.517,2.835,4.312,2.835c0.669,0,4.313-2.174,4.313-2.835C50.68,49.279,50.446,49.093,50.446,48.6z"/>
			
				<linearGradient id="SVGID_5_" gradientUnits="userSpaceOnUse" x1="-360.335" y1="1603.958" x2="-347.8032" y2="1603.958" gradientTransform="matrix(1 0 0 1 399 -1570)">
				<stop  offset="0" style="stop-color:#000000"/>
				<stop  offset="1" style="stop-color:#706D6D"/>
			</linearGradient>
			<path fill="url(#SVGID_5_)" d="M50.983,30.963c-1.304,1.181-2.058,1.064-3.382,1.068c-1.557,0.005-1.095-0.375-1.79,0.873
				c0.008-0.637-0.489,0.474-0.564-0.123c-0.989,0.122-1.099-0.481-1.669,0.324c-0.082-0.565-0.515,0.117-0.473-0.44
				c-1.049,0.421-2.45,0.064-2.45,2.729c0,0.986,0.25,1.818-0.254,2.225c-0.604,0.485,0.055,2.801,0.023,3.432
				c-0.756,0-0.825-1.315-0.879-2.033c-0.085-1.123-0.618-0.964-0.724-2.085c-0.177-1.849-0.313-2.7,0.234-4.474
				c0.58-1.877,1.118-3.321,2.862-4.183c1.309-0.646,3.156-1.748,4.485-1.311c0.919,0.301,2.835,0.516,3.721,0.969
				c0.713,0.365,0.896,0.439,0.949,0.636c0.048,0.175-0.002,0.444,0.122,1.089C51.222,29.799,51.043,30.908,50.983,30.963z"/>
			
				<linearGradient id="SVGID_6_" gradientUnits="userSpaceOnUse" x1="-348.0161" y1="1604.2422" x2="-343.814" y2="1604.2422" gradientTransform="matrix(1 0 0 1 399 -1570)">
				<stop  offset="0" style="stop-color:#000000"/>
				<stop  offset="1" style="stop-color:#706D6D"/>
			</linearGradient>
			<path fill="url(#SVGID_6_)" d="M54.673,32.373c-0.127-0.684-1.015-2.365-1.3-2.644c-0.344-0.339-0.63-1.169-0.885-1.361
				c-0.211-0.161-1.232-0.137-1.415,0.201c0.048,0.175-0.003,0.442,0.122,1.089c0.027,0.141-0.151,1.25-0.211,1.305
				c0.068,0.261,0.252,0.717,0.543,0.84c0.662,0.281,0.848,0.319,0.638,0.979c0.175-0.267,0.277-0.262,0.307-0.429
				c0.321,0.527,0.552,1.105,0.535,1.437c-0.023,0.431-0.103,0.872-0.005,1.286c0.088,0.379,0.201,0.758,0.458,1.813
				c0.096,0.393,0.274,0.369,0.228,0.763c-0.096,0.829-0.166,1.716-0.14,2.56c0.389,0,0.683-0.346,0.714-0.594
				c0.048-0.393,0.192-1.001,0.422-1.541c0.123-0.295,0.503-1.4,0.502-2.171C55.182,34.17,54.765,32.865,54.673,32.373z"/>
		</g>
	</g>
	<g>
		<g>
			<path fill="#FFFFFF" d="M89.273,56.138l0.554-6.402l-0.96-0.456c0,0.661-3.646,2.836-4.315,2.836
				c-0.795,0-4.313-2.217-4.313-2.836l-0.989,0.456l0.582,6.402l1.533,4.526l2.545,7.859h1.288l2.543-7.859L89.273,56.138z"/>
			
				<linearGradient id="SVGID_7_" gradientUnits="userSpaceOnUse" x1="-314.4165" y1="1623.3574" x2="-314.5285" y2="1639.5145" gradientTransform="matrix(1 0 0 1 399 -1570)">
				<stop  offset="0" style="stop-color:#A29639"/>
				<stop  offset="0.3374" style="stop-color:#A2CD3A"/>
			</linearGradient>
			<path fill="url(#SVGID_7_)" d="M96.518,52.072c-0.492-0.047-4.486-1.539-5.291-1.651l-1.398-0.686l-5.276,4.727l-5.301-4.727
				l-1.446,0.695c-0.771,0.105-4.736,1.596-5.214,1.639c-3.376,0.317-3.72,1.874-3.72,5.677c0,1.466,1.804,4.055,2.029,5.505
				c0.58,3.729,1.957,5.271,5.351,5.271h16.604c3.394,0,4.688-1.58,5.354-5.271c0.258-1.443,2.027-4.038,2.027-5.505
				C100.236,54.101,99.895,52.387,96.518,52.072z"/>
		</g>
		<g>
			
				<radialGradient id="SVGID_8_" cx="-267.0342" cy="1664.8613" r="9.8404" gradientTransform="matrix(0.8453 0 0 0.8453 310.2772 -1367.8717)" gradientUnits="userSpaceOnUse">
				<stop  offset="0" style="stop-color:#F7E4CF"/>
				<stop  offset="0.0993" style="stop-color:#F7E2CA"/>
				<stop  offset="0.2281" style="stop-color:#F5DABC"/>
				<stop  offset="0.3732" style="stop-color:#F1CDA4"/>
				<stop  offset="0.529" style="stop-color:#EDBC86"/>
				<stop  offset="0.6373" style="stop-color:#E9AF6F"/>
				<stop  offset="0.7005" style="stop-color:#DDA56A"/>
				<stop  offset="0.789" style="stop-color:#C48F5F"/>
				<stop  offset="0.8924" style="stop-color:#9F704E"/>
				<stop  offset="1" style="stop-color:#754E3A"/>
			</radialGradient>
			<path fill="url(#SVGID_8_)" d="M84.553,30.099c-5.207,0-7.156,2.645-7.156,7.356c0,1.725,0.486,2.207,0.67,3.594
				c0.09,0.683,0.307,2.11,0.644,2.59c0.976,1.391,1.537,2.617,2.235,3.519c0.781,1.006,1.73,1.614,3.609,1.614
				c1.877,0,2.828-0.565,3.61-1.561c0.696-0.883,1.265-2.105,2.233-3.574c0.453-0.686,0.688-2.419,0.789-3.428
				c0.123-1.178,0.522-1.368,0.522-2.757C91.709,32.744,89.758,30.099,84.553,30.099z"/>
			
				<linearGradient id="SVGID_9_" gradientUnits="userSpaceOnUse" x1="-314.4458" y1="1622.1143" x2="-314.4458" y2="1617.1621" gradientTransform="matrix(1 0 0 1 399 -1570)">
				<stop  offset="0" style="stop-color:#F0C89B"/>
				<stop  offset="0.0719" style="stop-color:#EFC596"/>
				<stop  offset="0.1711" style="stop-color:#EDBD87"/>
				<stop  offset="0.2863" style="stop-color:#EAB071"/>
				<stop  offset="0.4126" style="stop-color:#E59F51"/>
				<stop  offset="0.4559" style="stop-color:#E39844"/>
				<stop  offset="1" style="stop-color:#6E4631"/>
			</linearGradient>
			<path fill="url(#SVGID_9_)" d="M88.086,48.6c0-0.751,0.036-1.147,0.077-1.384c-0.784,0.994-1.733,1.558-3.608,1.558
				c-1.881,0-2.828-0.607-3.606-1.612c0.028,0.288,0.05,0.722,0.05,1.38c0,0.511-0.03,0.737-0.757,0.737
				c0,0.62,3.517,2.835,4.313,2.835c0.668,0,4.313-2.174,4.313-2.835C88.32,49.279,88.086,49.093,88.086,48.6z"/>
			
				<linearGradient id="SVGID_10_" gradientUnits="userSpaceOnUse" x1="-322.6963" y1="1603.958" x2="-310.1646" y2="1603.958" gradientTransform="matrix(1 0 0 1 399 -1570)">
				<stop  offset="0" style="stop-color:#000000"/>
				<stop  offset="1" style="stop-color:#706D6D"/>
			</linearGradient>
			<path fill="url(#SVGID_10_)" d="M88.622,30.963c-1.304,1.181-2.06,1.064-3.381,1.068c-1.556,0.005-1.095-0.375-1.79,0.873
				c0.009-0.637-0.488,0.474-0.563-0.123c-0.99,0.122-1.101-0.481-1.67,0.324c-0.083-0.565-0.516,0.117-0.475-0.44
				c-1.049,0.421-2.449,0.064-2.449,2.729c0,0.986,0.251,1.818-0.255,2.225c-0.604,0.485,0.056,2.801,0.022,3.432
				c-0.758,0-0.824-1.315-0.877-2.033c-0.088-1.123-0.617-0.964-0.726-2.085c-0.177-1.849-0.313-2.7,0.231-4.474
				c0.582-1.877,1.119-3.321,2.863-4.183c1.31-0.646,3.156-1.748,4.485-1.311c0.919,0.301,2.834,0.516,3.72,0.969
				c0.713,0.365,0.896,0.439,0.949,0.636c0.049,0.175-0.003,0.444,0.123,1.089C88.861,29.799,88.684,30.908,88.622,30.963z"/>
			
				<linearGradient id="SVGID_11_" gradientUnits="userSpaceOnUse" x1="-310.3779" y1="1604.2422" x2="-306.1738" y2="1604.2422" gradientTransform="matrix(1 0 0 1 399 -1570)">
				<stop  offset="0" style="stop-color:#000000"/>
				<stop  offset="1" style="stop-color:#706D6D"/>
			</linearGradient>
			<path fill="url(#SVGID_11_)" d="M92.313,32.373c-0.127-0.684-1.016-2.365-1.299-2.644c-0.346-0.339-0.632-1.169-0.886-1.361
				c-0.211-0.161-1.233-0.137-1.416,0.201c0.049,0.175-0.002,0.442,0.122,1.089c0.027,0.141-0.15,1.25-0.212,1.305
				c0.067,0.261,0.256,0.717,0.544,0.84c0.663,0.281,0.85,0.319,0.639,0.979c0.176-0.267,0.276-0.262,0.307-0.429
				c0.32,0.527,0.553,1.105,0.535,1.437c-0.022,0.431-0.104,0.872-0.006,1.286c0.09,0.379,0.199,0.758,0.459,1.813
				c0.094,0.393,0.271,0.369,0.229,0.763c-0.098,0.829-0.167,1.716-0.141,2.56c0.39,0,0.684-0.346,0.713-0.594
				c0.051-0.393,0.192-1.001,0.424-1.541c0.123-0.295,0.503-1.4,0.502-2.171C92.822,34.17,92.404,32.865,92.313,32.373z"/>
		</g>
	</g>
	<path d="M78.264,52.072c-0.492-0.047-4.486-1.539-5.291-1.651l-1.396-0.686l-0.963-0.456c-0.547,0-0.781-0.187-0.781-0.68
		c0-0.751,0.037-1.145,0.078-1.384c-0.785,0.995-1.735,1.559-3.61,1.559c1.877,0,2.827-0.565,3.611-1.561
		c0.696-0.885,1.265-2.105,2.229-3.575c0.455-0.686,0.688-2.42,0.793-3.428c0.387,0,0.683-0.346,0.713-0.593
		c0.051-0.392,0.191-1.002,0.424-1.541c0.123-0.295,0.504-1.4,0.502-2.172c0-1.735-0.418-3.041-0.512-3.534
		c-0.127-0.684-1.015-2.365-1.301-2.644c-0.343-0.339-0.629-1.168-0.885-1.361c-0.211-0.162-1.232-0.136-1.415,0.201
		c-0.054-0.196-0.235-0.27-0.949-0.635c-0.886-0.453-2.802-0.667-3.721-0.968c-1.329-0.439-3.176,0.664-4.485,1.31
		c-1.744,0.861-2.282,2.305-2.861,4.183c-0.548,1.773-0.412,2.625-0.235,4.473c0.106,1.121,0.64,0.963,0.725,2.085
		c0.054,0.719,0.123,2.034,0.879,2.034c0.091,0.683,0.307,2.11,0.646,2.59c0.974,1.391,1.536,2.617,2.235,3.519
		c0.088,0.116,0.18,0.224,0.274,0.326c-0.094-0.103-0.184-0.21-0.272-0.324c0.027,0.287,0.05,0.722,0.05,1.38
		c0,0.509-0.03,0.737-0.756,0.737l-0.989,0.456l-1.448,0.695c-0.772,0.105-4.735,1.596-5.212,1.64
		c-3.375,0.315-3.721,1.872-3.721,5.678c0,1.465,1.806,4.053,2.029,5.504c0.581,3.729,1.96,5.272,5.352,5.272h16.606
		c3.393,0,4.688-1.582,5.352-5.272c0.262-1.443,2.029-4.038,2.029-5.504C81.982,54.101,81.639,52.387,78.264,52.072z"/>
</g>
<g>
	<rect x="20.606" y="78.859" fill="none" width="86.22" height="12.679"/>
	<g enable-background="new    ">
		<path fill="#0D68AA" d="M45.587,86.132c0,0.577-0.051,1.093-0.152,1.544c-0.102,0.452-0.282,0.848-0.541,1.188
			c-0.259,0.339-0.624,0.604-1.095,0.79c-0.472,0.188-1.068,0.281-1.788,0.281c-0.72,0-1.316-0.095-1.788-0.281
			c-0.472-0.188-0.837-0.451-1.096-0.79c-0.258-0.341-0.438-0.735-0.54-1.188c-0.102-0.451-0.152-0.967-0.152-1.544v-7.272h2.556
			v8.019c0,0.903,0.34,1.354,1.02,1.354c0.68,0,1.02-0.451,1.02-1.354v-8.019h2.556V86.132z"/>
		<path fill="#0D68AA" d="M46.926,81.49H49.3v0.975h0.03c0.183-0.376,0.447-0.667,0.791-0.875c0.345-0.208,0.741-0.313,1.187-0.313
			c0.71,0,1.245,0.187,1.605,0.556c0.36,0.371,0.54,0.946,0.54,1.728v6.162h-2.465v-5.613c0-0.629-0.238-0.943-0.715-0.943
			c-0.254,0-0.464,0.1-0.631,0.296c-0.167,0.198-0.251,0.489-0.251,0.875v5.388h-2.465V81.49z"/>
		<path fill="#0D68AA" d="M54.883,78.736h2.465v1.888h-2.465V78.736z M54.883,81.49h2.465v8.232h-2.465V81.49z"/>
		<path fill="#0D68AA" d="M58.778,81.49h2.374v1.156h0.03c0.183-0.404,0.436-0.734,0.761-0.988c0.324-0.253,0.73-0.381,1.217-0.381
			c0.163,0,0.294,0.011,0.396,0.031v2.313c-0.213-0.04-0.441-0.061-0.685-0.061c-0.517,0-0.918,0.119-1.202,0.356
			c-0.284,0.238-0.426,0.616-0.426,1.133v4.673h-2.465V81.49z"/>
		<path fill="#0D68AA" d="M66.295,87.105c0.02,0.426,0.076,0.734,0.167,0.928c0.151,0.254,0.406,0.381,0.761,0.381
			c0.284,0,0.502-0.078,0.654-0.236c0.152-0.156,0.229-0.357,0.229-0.601c0-0.213-0.067-0.403-0.205-0.57
			c-0.137-0.168-0.383-0.313-0.737-0.434c-0.608-0.203-1.081-0.376-1.415-0.519c-0.335-0.143-0.622-0.313-0.86-0.511
			c-0.239-0.196-0.418-0.438-0.54-0.722c-0.122-0.284-0.183-0.639-0.183-1.065c0-0.812,0.271-1.428,0.814-1.849
			c0.542-0.422,1.316-0.633,2.32-0.633c0.559,0,1.029,0.063,1.415,0.184c0.386,0.122,0.695,0.292,0.929,0.511
			c0.232,0.218,0.396,0.464,0.494,0.737c0.096,0.273,0.145,0.568,0.145,0.883v0.273h-2.19v-0.152c0-0.344-0.065-0.583-0.196-0.715
			c-0.133-0.131-0.336-0.198-0.608-0.198c-0.306,0-0.521,0.067-0.647,0.198c-0.127,0.132-0.188,0.318-0.188,0.563
			c0,0.265,0.11,0.461,0.335,0.594c0.223,0.133,0.578,0.273,1.064,0.427c0.396,0.11,0.723,0.22,0.979,0.326
			c0.26,0.105,0.511,0.255,0.754,0.44c0.244,0.188,0.438,0.438,0.586,0.754c0.146,0.313,0.222,0.694,0.222,1.142
			c0,0.843-0.274,1.501-0.822,1.979c-0.547,0.475-1.323,0.715-2.328,0.715c-1.084,0-1.878-0.203-2.381-0.608
			c-0.501-0.406-0.752-1.024-0.752-1.856v-0.365H66.295L66.295,87.105z"/>
		<path fill="#0D68AA" d="M73.645,86.01v0.502c0,0.67,0.063,1.154,0.188,1.453c0.127,0.301,0.362,0.449,0.709,0.449
			c0.313,0,0.534-0.116,0.661-0.352c0.127-0.232,0.205-0.617,0.234-1.155h2.283c-0.021,1.015-0.303,1.772-0.845,2.274
			c-0.543,0.502-1.327,0.754-2.353,0.754c-0.739,0-1.338-0.121-1.795-0.357c-0.455-0.239-0.795-0.568-1.019-0.989
			s-0.368-0.89-0.435-1.407c-0.065-0.518-0.1-1.142-0.1-1.871c0-0.619,0.051-1.168,0.151-1.65c0.103-0.482,0.278-0.9,0.532-1.256
			c0.254-0.354,0.599-0.631,1.035-0.828c0.437-0.198,0.979-0.299,1.627-0.299c0.742,0,1.334,0.113,1.781,0.337
			c0.445,0.223,0.775,0.536,0.988,0.942c0.213,0.405,0.352,0.875,0.411,1.406c0.062,0.533,0.091,1.215,0.091,2.047H73.645z
			 M75.423,84.58c0-0.619-0.058-1.07-0.175-1.354c-0.115-0.285-0.337-0.428-0.661-0.428c-0.376,0-0.627,0.143-0.754,0.428
			c-0.126,0.283-0.188,0.734-0.188,1.354H75.423z"/>
		<path fill="#0D68AA" d="M82.682,84.018c0.01-0.549,0.094-1.002,0.25-1.362c0.157-0.359,0.383-0.642,0.678-0.845
			c0.283-0.191,0.608-0.33,0.975-0.41c0.364-0.082,0.807-0.123,1.323-0.123c1.024,0,1.767,0.191,2.229,0.57
			c0.462,0.381,0.691,1.004,0.691,1.864v4.229c0,0.447,0.019,0.814,0.054,1.104s0.114,0.516,0.236,0.678h-2.374
			c-0.07-0.233-0.117-0.549-0.138-0.943h-0.03c-0.162,0.354-0.421,0.637-0.776,0.845c-0.354,0.208-0.738,0.313-1.154,0.313
			c-0.711,0-1.254-0.203-1.629-0.608c-0.375-0.406-0.563-1.04-0.563-1.902c0-0.477,0.091-0.903,0.273-1.278
			c0.182-0.375,0.426-0.648,0.729-0.82c0.203-0.111,0.438-0.208,0.708-0.289c0.268-0.081,0.585-0.162,0.951-0.243
			c0.294-0.071,0.475-0.116,0.547-0.138c0.376-0.102,0.615-0.208,0.723-0.319c0.107-0.11,0.16-0.319,0.16-0.624
			c0-0.264-0.063-0.466-0.189-0.607c-0.127-0.143-0.322-0.213-0.586-0.213c-0.326,0-0.554,0.092-0.687,0.273
			c-0.132,0.184-0.202,0.466-0.213,0.852h-2.188V84.018z M85.018,87.95c0.125,0.188,0.301,0.28,0.524,0.28
			c0.283,0,0.519-0.092,0.706-0.273s0.281-0.466,0.281-0.852c0-0.306,0.006-0.629,0.017-0.975c0-0.244,0-0.4,0-0.472
			c-0.274,0.142-0.578,0.272-0.913,0.396c-0.213,0.092-0.355,0.162-0.426,0.213c-0.255,0.193-0.381,0.498-0.381,0.914
			C84.826,87.506,84.891,87.762,85.018,87.95z"/>
	</g>
</g>
<rect x="10.94" y="91.818" fill="none" width="106.505" height="12.681"/>
<g enable-background="new    ">
	<path fill="#0D68AA" d="M40.542,102.684h-2.374v-0.975h-0.031c-0.172,0.365-0.431,0.654-0.776,0.867
		c-0.345,0.213-0.746,0.318-1.202,0.318c-0.71,0-1.246-0.185-1.605-0.555c-0.36-0.37-0.54-0.945-0.54-1.729V94.45h2.465v5.614
		c0,0.629,0.238,0.942,0.715,0.942c0.253,0,0.464-0.098,0.631-0.296c0.167-0.197,0.251-0.49,0.251-0.875v-5.387h2.465
		L40.542,102.684L40.542,102.684z"/>
	<path fill="#0D68AA" d="M41.911,94.451h2.374v0.975h0.03c0.183-0.376,0.446-0.667,0.791-0.875c0.345-0.208,0.741-0.313,1.187-0.313
		c0.71,0,1.245,0.186,1.605,0.556c0.36,0.371,0.541,0.946,0.541,1.728v6.162h-2.465V97.07c0-0.629-0.239-0.944-0.715-0.944
		c-0.254,0-0.464,0.101-0.631,0.297c-0.167,0.198-0.251,0.489-0.251,0.875v5.386h-2.465L41.911,94.451L41.911,94.451z"/>
	<path fill="#0D68AA" d="M49.762,96.979c0.01-0.549,0.094-1.002,0.251-1.362c0.157-0.359,0.382-0.642,0.677-0.845
		c0.284-0.192,0.609-0.33,0.974-0.41c0.365-0.082,0.807-0.122,1.324-0.122c1.024,0,1.767,0.19,2.229,0.569
		c0.461,0.381,0.692,1.002,0.692,1.864v4.229c0,0.445,0.018,0.813,0.053,1.104c0.035,0.289,0.114,0.516,0.236,0.678h-2.374
		c-0.071-0.233-0.117-0.549-0.137-0.943h-0.03c-0.162,0.354-0.421,0.637-0.776,0.845s-0.741,0.312-1.156,0.312
		c-0.71,0-1.253-0.201-1.628-0.606c-0.375-0.406-0.563-1.041-0.563-1.901c0-0.479,0.092-0.904,0.274-1.279s0.426-0.648,0.73-0.82
		c0.203-0.112,0.438-0.208,0.708-0.289c0.268-0.081,0.585-0.162,0.951-0.244c0.294-0.07,0.477-0.115,0.548-0.137
		c0.375-0.102,0.616-0.208,0.723-0.319c0.107-0.11,0.16-0.319,0.16-0.624c0-0.264-0.063-0.467-0.19-0.607
		c-0.127-0.142-0.322-0.213-0.585-0.213c-0.325,0-0.553,0.092-0.685,0.272c-0.132,0.183-0.203,0.467-0.213,0.853h-2.193V96.979z
		 M52.098,100.911c0.127,0.187,0.302,0.28,0.525,0.28c0.284,0,0.52-0.092,0.708-0.273s0.282-0.466,0.282-0.852
		c0-0.306,0.005-0.629,0.015-0.976c0-0.243,0-0.399,0-0.471c-0.274,0.142-0.578,0.272-0.913,0.396
		c-0.213,0.092-0.355,0.162-0.426,0.213c-0.254,0.193-0.38,0.498-0.38,0.914C51.908,100.467,51.971,100.723,52.098,100.911z"/>
	<path fill="#0D68AA" d="M61.371,94.451h2.374v1.005h0.03c0.112-0.335,0.312-0.622,0.602-0.86c0.289-0.236,0.682-0.356,1.179-0.356
		c0.852,0,1.489,0.335,1.91,1.005c0.42,0.669,0.632,1.755,0.632,3.256c0,0.699-0.033,1.309-0.1,1.825s-0.184,0.97-0.35,1.354
		c-0.168,0.386-0.412,0.685-0.73,0.897c-0.318,0.212-0.723,0.318-1.209,0.318c-0.396,0-0.753-0.082-1.073-0.25
		c-0.32-0.168-0.576-0.453-0.768-0.858h-0.031v3.575h-2.465L61.371,94.451L61.371,94.451z M63.958,100.469
		c0.112,0.422,0.355,0.633,0.73,0.633c0.406,0,0.665-0.192,0.776-0.578c0.111-0.385,0.167-1.021,0.167-1.901
		c0-0.406-0.008-0.751-0.022-1.035c-0.016-0.284-0.054-0.545-0.115-0.782c-0.061-0.24-0.157-0.428-0.289-0.563
		c-0.132-0.138-0.31-0.205-0.533-0.205c-0.344,0-0.578,0.198-0.699,0.593c-0.122,0.396-0.183,1.023-0.183,1.889
		C63.79,99.396,63.846,100.048,63.958,100.469z"/>
	<path fill="#0D68AA" d="M70.614,102.584c-0.451-0.208-0.796-0.502-1.027-0.883c-0.233-0.381-0.392-0.821-0.472-1.323
		c-0.081-0.502-0.122-1.098-0.122-1.788c0-0.669,0.049-1.263,0.146-1.779c0.096-0.518,0.266-0.969,0.51-1.354
		c0.242-0.386,0.588-0.687,1.035-0.897c0.445-0.213,1.015-0.319,1.703-0.319c0.73,0,1.323,0.104,1.78,0.313
		c0.456,0.208,0.799,0.503,1.026,0.882c0.229,0.381,0.383,0.821,0.464,1.324c0.081,0.502,0.122,1.098,0.122,1.787
		c0,0.671-0.049,1.264-0.146,1.78c-0.096,0.518-0.267,0.97-0.509,1.354c-0.244,0.385-0.59,0.685-1.035,0.896
		c-0.445,0.213-1.015,0.318-1.704,0.318C71.656,102.896,71.064,102.792,70.614,102.584z M73.141,96.422
		c-0.117-0.381-0.363-0.57-0.738-0.57c-0.354,0-0.602,0.198-0.737,0.594c-0.138,0.396-0.206,1.101-0.206,2.115
		c0,1.014,0.068,1.722,0.206,2.121c0.137,0.401,0.383,0.603,0.737,0.603c0.375,0,0.621-0.19,0.738-0.57
		c0.115-0.381,0.174-1.093,0.174-2.139C73.314,97.521,73.256,96.803,73.141,96.422z"/>
	<path fill="#0D68AA" d="M76.875,94.451h2.373v1.156h0.031c0.182-0.405,0.437-0.735,0.761-0.988
		c0.324-0.254,0.729-0.381,1.218-0.381c0.161,0,0.294,0.011,0.395,0.029v2.313c-0.213-0.04-0.44-0.062-0.685-0.062
		c-0.518,0-0.918,0.119-1.202,0.356c-0.283,0.239-0.426,0.617-0.426,1.134v4.672h-2.465V94.451z"/>
	<path fill="#0D68AA" d="M82.505,94.451h2.373v1.156h0.03c0.183-0.405,0.438-0.735,0.762-0.988c0.324-0.254,0.73-0.381,1.219-0.381
		c0.16,0,0.293,0.011,0.395,0.029v2.313c-0.213-0.04-0.441-0.062-0.686-0.062c-0.518,0-0.918,0.119-1.201,0.356
		c-0.285,0.239-0.426,0.617-0.426,1.134v4.672h-2.466V94.451z"/>
	<path fill="#0D68AA" d="M87.906,96.979c0.01-0.549,0.094-1.002,0.251-1.362c0.155-0.359,0.383-0.642,0.677-0.845
		c0.284-0.192,0.609-0.33,0.975-0.41c0.364-0.082,0.807-0.122,1.323-0.122c1.022,0,1.767,0.19,2.229,0.569
		c0.462,0.381,0.691,1.002,0.691,1.864v4.229c0,0.445,0.018,0.813,0.055,1.104c0.035,0.289,0.113,0.516,0.234,0.678h-2.373
		c-0.07-0.233-0.117-0.549-0.137-0.943h-0.031c-0.162,0.354-0.421,0.637-0.775,0.845s-0.739,0.312-1.155,0.312
		c-0.71,0-1.253-0.201-1.628-0.606c-0.376-0.406-0.563-1.041-0.563-1.901c0-0.479,0.09-0.904,0.273-1.279
		c0.182-0.375,0.426-0.648,0.729-0.82c0.203-0.112,0.439-0.208,0.709-0.289c0.268-0.081,0.586-0.162,0.95-0.244
		c0.294-0.07,0.476-0.115,0.548-0.137c0.375-0.102,0.616-0.208,0.723-0.319c0.106-0.11,0.16-0.319,0.16-0.624
		c0-0.264-0.063-0.467-0.189-0.607c-0.127-0.143-0.323-0.213-0.586-0.213c-0.325,0-0.555,0.092-0.686,0.272
		c-0.133,0.183-0.203,0.467-0.213,0.853h-2.191V96.979z M90.242,100.911c0.126,0.187,0.301,0.28,0.523,0.28
		c0.283,0,0.521-0.092,0.707-0.273c0.188-0.184,0.282-0.466,0.282-0.852c0-0.306,0.005-0.629,0.015-0.976c0-0.243,0-0.399,0-0.471
		c-0.272,0.142-0.576,0.272-0.912,0.396c-0.213,0.092-0.354,0.162-0.426,0.213c-0.255,0.193-0.381,0.498-0.381,0.914
		C90.052,100.467,90.115,100.723,90.242,100.911z"/>
</g>
</svg>
