<?xml version="1.0" encoding="utf-8"?>
<!-- Generator: Adobe Illustrator 16.0.0, SVG Export Plug-In . SVG Version: 6.00 Build 0)  -->
<!DOCTYPE svg PUBLIC "-//W3C//DTD SVG 1.1//EN" "http://www.w3.org/Graphics/SVG/1.1/DTD/svg11.dtd">
<svg version="1.1" xmlns="http://www.w3.org/2000/svg" xmlns:xlink="http://www.w3.org/1999/xlink" x="0px" y="0px" width="131.5px"
	 height="131.5px" viewBox="0 0 131.5 131.5" enable-background="new 0 0 131.5 131.5" xml:space="preserve">
<g id="Layer_2">
	<rect fill="#FFFFFF" width="132.75" height="131.25"/>
</g>
<g id="Layer_1">
	<g>
		<g>
			<path fill="#FFFFFF" d="M66.848,73.936c24.398,0,44.301-1.963,44.301-4.369c0-2.405-19.901-4.368-44.301-4.368
				c-24.402,0-44.304,1.963-44.304,4.368C22.543,71.973,42.445,73.936,66.848,73.936z"/>
			<path fill="#FAFBFB" d="M66.848,73.822c23.885,0,43.367-1.926,43.367-4.286s-19.482-4.285-43.367-4.285
				c-23.889,0-43.372,1.925-43.372,4.285S42.958,73.822,66.848,73.822z"/>
			<path fill="#F6F7F8" d="M66.848,73.71c23.373,0,42.436-1.888,42.436-4.203s-19.063-4.202-42.436-4.202
				c-23.375,0-42.438,1.887-42.438,4.202S43.473,73.71,66.848,73.71z"/>
			<path fill="#F3F4F5" d="M66.848,73.598c22.858,0,41.502-1.852,41.502-4.119c0-2.271-18.644-4.121-41.502-4.121
				c-22.862,0-41.506,1.852-41.506,4.121C25.341,71.746,43.985,73.598,66.848,73.598z"/>
			<path fill="#F0F2F3" d="M66.848,73.484c22.344,0,40.57-1.813,40.57-4.036c0-2.224-18.227-4.037-40.57-4.037
				c-22.348,0-40.574,1.813-40.574,4.037C26.274,71.671,44.5,73.484,66.848,73.484z"/>
			<path fill="#EDEFF1" d="M66.848,73.371c21.832,0,39.637-1.775,39.637-3.952s-17.805-3.953-39.637-3.953
				c-21.833,0-39.641,1.776-39.641,3.953S45.013,73.371,66.848,73.371z"/>
			<path fill="#EAEDEF" d="M66.848,73.26c21.316,0,38.705-1.738,38.705-3.869c0-2.134-17.388-3.871-38.705-3.871
				c-21.321,0-38.708,1.737-38.708,3.871C28.139,71.521,45.527,73.26,66.848,73.26z"/>
			<path fill="#E8EAED" d="M66.848,73.146c20.805,0,37.772-1.701,37.772-3.787s-16.968-3.787-37.772-3.787
				c-20.807,0-37.776,1.701-37.776,3.787S46.041,73.146,66.848,73.146z"/>
			<path fill="#E5E8EB" d="M66.848,73.033c20.291,0,36.84-1.664,36.84-3.703c0-2.04-16.549-3.704-36.84-3.704
				c-20.292,0-36.843,1.664-36.843,3.704C30.004,71.369,46.554,73.033,66.848,73.033z"/>
			<path fill="#E2E6E9" d="M66.848,72.921c19.777,0,35.907-1.626,35.907-3.62S86.624,65.68,66.848,65.68
				c-19.779,0-35.911,1.627-35.911,3.621S47.068,72.921,66.848,72.921z"/>
			<path fill="#DFE3E7" d="M66.848,72.809c19.264,0,34.976-1.589,34.976-3.537c0-1.947-15.712-3.537-34.976-3.537
				c-19.267,0-34.978,1.59-34.978,3.537C31.87,71.22,47.581,72.809,66.848,72.809z"/>
			<path fill="#DCE1E5" d="M66.848,72.695c18.75,0,34.043-1.553,34.043-3.453c0-1.903-15.293-3.455-34.043-3.455
				c-18.751,0-34.046,1.552-34.046,3.455C32.802,71.145,48.095,72.695,66.848,72.695z"/>
			<path fill="#D9DFE3" d="M66.848,72.583c18.236,0,33.111-1.515,33.111-3.37c0-1.857-14.875-3.372-33.111-3.372
				c-18.239,0-33.113,1.515-33.113,3.372C33.734,71.068,48.609,72.583,66.848,72.583z"/>
			<path fill="#D7DDE1" d="M66.848,72.471c17.723,0,32.178-1.477,32.178-3.287c0-1.812-14.455-3.289-32.178-3.289
				c-17.725,0-32.181,1.478-32.181,3.289C34.667,70.994,49.123,72.471,66.848,72.471z"/>
			<path fill="#D4DBE0" d="M66.848,72.357c17.209,0,31.246-1.438,31.246-3.203c0-1.768-14.037-3.206-31.246-3.206
				c-17.21,0-31.248,1.438-31.248,3.206C35.6,70.919,49.636,72.357,66.848,72.357z"/>
			<path fill="#D1D9DE" d="M66.848,72.246c16.695,0,30.313-1.402,30.313-3.123c0-1.719-13.618-3.12-30.313-3.12
				c-16.697,0-30.314,1.401-30.314,3.12C36.532,70.844,50.15,72.246,66.848,72.246z"/>
			<path fill="#CED6DC" d="M66.848,72.133c16.182,0,29.381-1.365,29.381-3.039c0-1.673-13.199-3.037-29.381-3.037
				c-16.185,0-29.383,1.364-29.383,3.037C37.464,70.768,50.664,72.133,66.848,72.133z"/>
		</g>
		<g>
			<g>
				
					<linearGradient id="SVGID_1_" gradientUnits="userSpaceOnUse" x1="32.5405" y1="979.4395" x2="32.5405" y2="956.6738" gradientTransform="matrix(1 0 0 1 11 -910.5)">
					<stop  offset="0" style="stop-color:#FFFFFF"/>
					<stop  offset="1" style="stop-color:#817E7E"/>
				</linearGradient>
				<path fill="url(#SVGID_1_)" d="M49.143,54.287l0.654-7.574l-1.137-0.539c0,0.781-4.311,3.355-5.104,3.355
					c-0.941,0-5.101-2.623-5.101-3.355l-1.171,0.539l0.689,7.574l1.813,5.355l3.011,9.297h1.522l3.008-9.297L49.143,54.287z"/>
				
					<linearGradient id="SVGID_2_" gradientUnits="userSpaceOnUse" x1="32.5928" y1="961.4961" x2="32.4602" y2="980.6113" gradientTransform="matrix(1 0 0 1 11 -910.5)">
					<stop  offset="0" style="stop-color:#A11D21"/>
					<stop  offset="0.0296" style="stop-color:#A61E22"/>
					<stop  offset="0.1735" style="stop-color:#BA1F24"/>
					<stop  offset="0.3433" style="stop-color:#C91F26"/>
					<stop  offset="0.5616" style="stop-color:#D21F26"/>
					<stop  offset="1" style="stop-color:#D51F26"/>
				</linearGradient>
				<path fill="url(#SVGID_2_)" d="M57.71,49.477c-0.582-0.055-5.309-1.821-6.259-1.953l-1.654-0.811l-6.244,5.592l-6.269-5.592
					l-1.712,0.822c-0.914,0.124-5.602,1.888-6.166,1.939c-3.994,0.375-4.402,2.217-4.402,6.717c0,1.734,2.135,4.797,2.401,6.512
					c0.687,4.412,2.318,6.236,6.33,6.236H53.38c4.013,0,5.547-1.869,6.332-6.236c0.307-1.707,2.401-4.776,2.401-6.512
					C62.111,51.877,61.705,49.85,57.71,49.477z"/>
			</g>
			<g>
				
					<radialGradient id="SVGID_3_" cx="32.5566" cy="945.0293" r="9.841" gradientTransform="matrix(1 0 0 1 11 -910.5)" gradientUnits="userSpaceOnUse">
					<stop  offset="0" style="stop-color:#F7E4CF"/>
					<stop  offset="0.0993" style="stop-color:#F7E2CA"/>
					<stop  offset="0.2281" style="stop-color:#F5DABC"/>
					<stop  offset="0.3732" style="stop-color:#F1CDA4"/>
					<stop  offset="0.529" style="stop-color:#EDBC86"/>
					<stop  offset="0.6373" style="stop-color:#E9AF6F"/>
					<stop  offset="0.7005" style="stop-color:#DDA56A"/>
					<stop  offset="0.789" style="stop-color:#C48F5F"/>
					<stop  offset="0.8924" style="stop-color:#9F704E"/>
					<stop  offset="1" style="stop-color:#754E3A"/>
				</radialGradient>
				<path fill="url(#SVGID_3_)" d="M43.556,23.482c-6.16,0-8.465,3.129-8.465,8.703c0,2.041,0.574,2.611,0.791,4.252
					c0.106,0.808,0.363,2.496,0.762,3.064c1.153,1.646,1.818,3.096,2.646,4.163c0.921,1.19,2.044,1.91,4.268,1.91
					c2.219,0,3.344-0.669,4.272-1.847c0.825-1.045,1.496-2.49,2.64-4.228c0.536-0.812,0.812-2.862,0.935-4.056
					c0.144-1.393,0.618-1.618,0.618-3.262C52.021,26.611,49.715,23.482,43.556,23.482z"/>
				
					<linearGradient id="SVGID_4_" gradientUnits="userSpaceOnUse" x1="32.5571" y1="960.0273" x2="32.5571" y2="954.168" gradientTransform="matrix(1 0 0 1 11 -910.5)">
					<stop  offset="0" style="stop-color:#F0C89B"/>
					<stop  offset="0.0719" style="stop-color:#EFC596"/>
					<stop  offset="0.1711" style="stop-color:#EDBD87"/>
					<stop  offset="0.2863" style="stop-color:#EAB071"/>
					<stop  offset="0.4126" style="stop-color:#E59F51"/>
					<stop  offset="0.4559" style="stop-color:#E39844"/>
					<stop  offset="1" style="stop-color:#6E4631"/>
				</linearGradient>
				<path fill="url(#SVGID_4_)" d="M47.736,45.369c0-0.889,0.042-1.357,0.092-1.637c-0.929,1.176-2.054,1.843-4.272,1.843
					c-2.223,0-3.346-0.718-4.266-1.907c0.033,0.34,0.06,0.854,0.06,1.633c0,0.604-0.036,0.872-0.895,0.872
					c0,0.733,4.16,3.354,5.101,3.354c0.792,0,5.103-2.572,5.103-3.354C48.013,46.173,47.736,45.953,47.736,45.369z"/>
				
					<linearGradient id="SVGID_5_" gradientUnits="userSpaceOnUse" x1="22.7993" y1="938.5469" x2="37.6255" y2="938.5469" gradientTransform="matrix(1 0 0 1 11 -910.5)">
					<stop  offset="0" style="stop-color:#000000"/>
					<stop  offset="1" style="stop-color:#706D6D"/>
				</linearGradient>
				<path fill="url(#SVGID_5_)" d="M48.372,24.505c-1.543,1.397-2.435,1.259-4.001,1.263c-1.841,0.006-1.295-0.443-2.117,1.033
					c0.01-0.754-0.578,0.561-0.667-0.146c-1.17,0.144-1.3-0.569-1.974,0.384c-0.097-0.669-0.609,0.138-0.56-0.521
					c-1.241,0.498-2.898,0.076-2.898,3.228c0,1.167,0.296,2.151-0.301,2.633c-0.715,0.574,0.065,3.313,0.027,4.06
					c-0.895,0-0.976-1.556-1.04-2.405c-0.101-1.328-0.731-1.14-0.857-2.466c-0.21-2.187-0.371-3.194,0.277-5.293
					c0.686-2.221,1.323-3.929,3.386-4.948c1.548-0.765,3.734-2.068,5.306-1.55c1.087,0.356,3.354,0.61,4.402,1.146
					c0.843,0.431,1.059,0.519,1.123,0.752c0.057,0.207-0.003,0.525,0.144,1.288C48.654,23.127,48.443,24.439,48.372,24.505z"/>
				
					<linearGradient id="SVGID_6_" gradientUnits="userSpaceOnUse" x1="37.3721" y1="938.8828" x2="42.3418" y2="938.8828" gradientTransform="matrix(1 0 0 1 11 -910.5)">
					<stop  offset="0" style="stop-color:#000000"/>
					<stop  offset="1" style="stop-color:#706D6D"/>
				</linearGradient>
				<path fill="url(#SVGID_6_)" d="M52.737,26.172c-0.151-0.809-1.201-2.798-1.538-3.128c-0.407-0.401-0.745-1.383-1.047-1.61
					c-0.25-0.191-1.458-0.162-1.674,0.238c0.057,0.207-0.004,0.523,0.144,1.288c0.032,0.167-0.179,1.479-0.25,1.544
					c0.08,0.309,0.299,0.848,0.642,0.994c0.784,0.333,1.003,0.378,0.755,1.159c0.207-0.316,0.327-0.31,0.363-0.507
					c0.379,0.623,0.653,1.307,0.632,1.699c-0.027,0.51-0.122,1.032-0.006,1.522c0.104,0.448,0.237,0.896,0.541,2.144
					c0.114,0.465,0.324,0.436,0.27,0.903c-0.114,0.981-0.196,2.03-0.166,3.028c0.46,0,0.808-0.409,0.845-0.703
					c0.057-0.465,0.227-1.184,0.499-1.823c0.146-0.349,0.596-1.657,0.595-2.569C53.339,28.299,52.846,26.755,52.737,26.172z"/>
			</g>
		</g>
		<g>
			<g>
				<path fill="#FFFFFF" d="M93.672,54.287l0.654-7.574l-1.137-0.539c0,0.781-4.312,3.355-5.104,3.355
					c-0.94,0-5.103-2.623-5.103-3.355l-1.17,0.539l0.689,7.574l1.813,5.355l3.012,9.297h1.523l3.008-9.297L93.672,54.287z"/>
				
					<linearGradient id="SVGID_7_" gradientUnits="userSpaceOnUse" x1="77.1221" y1="961.4951" x2="76.9896" y2="980.6103" gradientTransform="matrix(1 0 0 1 11 -910.5)">
					<stop  offset="0" style="stop-color:#A29639"/>
					<stop  offset="0.3374" style="stop-color:#A2CD3A"/>
				</linearGradient>
				<path fill="url(#SVGID_7_)" d="M102.24,49.477c-0.583-0.055-5.309-1.821-6.26-1.953l-1.654-0.811l-6.243,5.592l-6.271-5.592
					l-1.711,0.822c-0.914,0.124-5.604,1.888-6.168,1.939c-3.994,0.375-4.401,2.217-4.401,6.717c0,1.734,2.135,4.797,2.401,6.512
					c0.687,4.412,2.317,6.236,6.33,6.236h19.645c4.014,0,5.547-1.869,6.332-6.236c0.306-1.707,2.4-4.776,2.4-6.512
					C106.641,51.877,106.234,49.85,102.24,49.477z"/>
			</g>
			<g>
				
					<radialGradient id="SVGID_8_" cx="77.0859" cy="945.0293" r="9.8412" gradientTransform="matrix(1 0 0 1 11 -910.5)" gradientUnits="userSpaceOnUse">
					<stop  offset="0" style="stop-color:#F7E4CF"/>
					<stop  offset="0.0993" style="stop-color:#F7E2CA"/>
					<stop  offset="0.2281" style="stop-color:#F5DABC"/>
					<stop  offset="0.3732" style="stop-color:#F1CDA4"/>
					<stop  offset="0.529" style="stop-color:#EDBC86"/>
					<stop  offset="0.6373" style="stop-color:#E9AF6F"/>
					<stop  offset="0.7005" style="stop-color:#DDA56A"/>
					<stop  offset="0.789" style="stop-color:#C48F5F"/>
					<stop  offset="0.8924" style="stop-color:#9F704E"/>
					<stop  offset="1" style="stop-color:#754E3A"/>
				</radialGradient>
				<path fill="url(#SVGID_8_)" d="M88.086,23.482c-6.16,0-8.466,3.129-8.466,8.703c0,2.041,0.575,2.611,0.791,4.252
					c0.106,0.808,0.362,2.496,0.762,3.064c1.154,1.646,1.818,3.096,2.646,4.163c0.922,1.19,2.046,1.91,4.269,1.91
					c2.22,0,3.345-0.669,4.272-1.847c0.824-1.045,1.496-2.49,2.641-4.228c0.536-0.812,0.813-2.862,0.934-4.056
					c0.145-1.393,0.619-1.618,0.619-3.262C96.552,26.611,94.244,23.482,88.086,23.482z"/>
				
					<linearGradient id="SVGID_9_" gradientUnits="userSpaceOnUse" x1="77.0869" y1="960.0273" x2="77.0869" y2="954.168" gradientTransform="matrix(1 0 0 1 11 -910.5)">
					<stop  offset="0" style="stop-color:#F0C89B"/>
					<stop  offset="0.0719" style="stop-color:#EFC596"/>
					<stop  offset="0.1711" style="stop-color:#EDBD87"/>
					<stop  offset="0.2863" style="stop-color:#EAB071"/>
					<stop  offset="0.4126" style="stop-color:#E59F51"/>
					<stop  offset="0.4559" style="stop-color:#E39844"/>
					<stop  offset="1" style="stop-color:#6E4631"/>
				</linearGradient>
				<path fill="url(#SVGID_9_)" d="M92.266,45.369c0-0.889,0.043-1.357,0.092-1.637c-0.928,1.176-2.053,1.843-4.271,1.843
					c-2.224,0-3.346-0.718-4.267-1.907c0.033,0.34,0.06,0.854,0.06,1.633c0,0.604-0.036,0.872-0.896,0.872
					c0,0.733,4.16,3.354,5.103,3.354c0.792,0,5.103-2.572,5.103-3.354C92.543,46.173,92.266,45.953,92.266,45.369z"/>
				
					<linearGradient id="SVGID_10_" gradientUnits="userSpaceOnUse" x1="67.3301" y1="938.5469" x2="82.1553" y2="938.5469" gradientTransform="matrix(1 0 0 1 11 -910.5)">
					<stop  offset="0" style="stop-color:#000000"/>
					<stop  offset="1" style="stop-color:#706D6D"/>
				</linearGradient>
				<path fill="url(#SVGID_10_)" d="M92.9,24.505c-1.543,1.397-2.435,1.259-4,1.263c-1.84,0.006-1.295-0.443-2.117,1.033
					c0.01-0.754-0.578,0.561-0.666-0.146c-1.172,0.144-1.301-0.569-1.975,0.384c-0.097-0.669-0.609,0.138-0.561-0.521
					c-1.24,0.498-2.898,0.076-2.898,3.228c0,1.167,0.297,2.151-0.301,2.633c-0.714,0.574,0.065,3.313,0.028,4.06
					c-0.896,0-0.976-1.556-1.039-2.405c-0.103-1.328-0.731-1.14-0.858-2.466c-0.209-2.187-0.369-3.194,0.276-5.293
					c0.687-2.221,1.323-3.929,3.387-4.948c1.548-0.765,3.734-2.068,5.306-1.55c1.088,0.356,3.354,0.61,4.402,1.146
					c0.842,0.431,1.059,0.519,1.123,0.752c0.057,0.207-0.004,0.525,0.145,1.288C93.184,23.127,92.973,24.439,92.9,24.505z"/>
				
					<linearGradient id="SVGID_11_" gradientUnits="userSpaceOnUse" x1="81.9004" y1="938.8828" x2="86.8721" y2="938.8828" gradientTransform="matrix(1 0 0 1 11 -910.5)">
					<stop  offset="0" style="stop-color:#000000"/>
					<stop  offset="1" style="stop-color:#706D6D"/>
				</linearGradient>
				<path fill="url(#SVGID_11_)" d="M97.266,26.172c-0.15-0.809-1.201-2.798-1.537-3.128c-0.408-0.401-0.746-1.383-1.047-1.61
					c-0.25-0.191-1.459-0.162-1.675,0.238c0.058,0.207-0.003,0.523,0.144,1.288c0.033,0.167-0.178,1.479-0.25,1.544
					c0.08,0.309,0.301,0.848,0.643,0.994c0.784,0.333,1.004,0.378,0.755,1.159c0.207-0.316,0.327-0.31,0.363-0.507
					c0.379,0.623,0.653,1.307,0.632,1.699c-0.027,0.51-0.121,1.032-0.006,1.522c0.104,0.448,0.236,0.896,0.542,2.144
					c0.112,0.465,0.323,0.436,0.271,0.903c-0.115,0.981-0.197,2.03-0.166,3.028c0.461,0,0.808-0.409,0.844-0.703
					c0.059-0.465,0.228-1.184,0.5-1.823c0.146-0.349,0.596-1.657,0.595-2.569C97.869,28.299,97.375,26.755,97.266,26.172z"/>
			</g>
		</g>
		<path d="M80.645,49.477c-0.582-0.055-5.308-1.821-6.259-1.953l-1.653-0.811l-1.139-0.539c-0.646,0-0.924-0.221-0.924-0.805
			c0-0.889,0.043-1.355,0.092-1.637c-0.929,1.177-2.053,1.844-4.271,1.844c2.22,0,3.344-0.669,4.273-1.846
			c0.823-1.047,1.495-2.491,2.639-4.229c0.537-0.811,0.813-2.863,0.936-4.055c0.459,0,0.807-0.409,0.844-0.702
			c0.059-0.464,0.227-1.185,0.5-1.823c0.146-0.349,0.596-1.656,0.594-2.57c0-2.053-0.493-3.597-0.604-4.18
			c-0.15-0.809-1.201-2.798-1.539-3.128c-0.406-0.401-0.744-1.382-1.046-1.61c-0.25-0.191-1.459-0.16-1.675,0.238
			c-0.064-0.232-0.279-0.32-1.123-0.752c-1.048-0.535-3.314-0.789-4.402-1.145c-1.572-0.52-3.757,0.785-5.306,1.549
			c-2.063,1.02-2.7,2.728-3.385,4.949c-0.648,2.097-0.487,3.105-0.278,5.291c0.126,1.326,0.757,1.139,0.858,2.467
			c0.064,0.85,0.145,2.406,1.04,2.406c0.107,0.808,0.363,2.496,0.763,3.064c1.152,1.646,1.817,3.096,2.645,4.163
			c0.104,0.137,0.213,0.265,0.324,0.386c-0.111-0.121-0.218-0.249-0.322-0.383c0.032,0.339,0.059,0.854,0.059,1.633
			c0,0.602-0.035,0.872-0.895,0.872l-1.17,0.539l-1.713,0.822c-0.914,0.124-5.602,1.888-6.166,1.94
			c-3.994,0.373-4.402,2.215-4.402,6.717c0,1.733,2.136,4.795,2.401,6.511c0.687,4.412,2.319,6.237,6.331,6.237h19.646
			c4.013,0,5.547-1.871,6.33-6.237c0.309-1.707,2.402-4.776,2.402-6.511C85.045,51.877,84.639,49.85,80.645,49.477z"/>
	</g>
	<g>
		<rect x="12.435" y="81.167" fill="none" width="102" height="15"/>
		<text transform="matrix(1 0 0 1 32.7539 94.0186)" fill="#0D68AA" font-family="'Helvetica87-CondensedHeavy'" font-size="18">Unirse a</text>
	</g>
	<rect x="1" y="96.5" fill="none" width="126" height="15"/>
	<text transform="matrix(1 0 0 1 27.4873 109.3516)" fill="#0D68AA" font-family="'Helvetica87-CondensedHeavy'" font-size="18">una porra</text>
</g>
</svg>
